<?xml version="1.0" standalone="no"?>
<!DOCTYPE svg PUBLIC "-//W3C//DTD SVG 20010904//EN"
 "http://www.w3.org/TR/2001/REC-SVG-20010904/DTD/svg10.dtd">
<svg version="1.0" xmlns="http://www.w3.org/2000/svg"
 width="250.000000pt" height="250.000000pt" viewBox="0 0 250.000000 250.000000"
 preserveAspectRatio="xMidYMid meet">
<metadata>
Created by potrace 1.11, written by Peter Selinger 2001-2013
</metadata>
<g transform="translate(0.000000,250.000000) scale(0.100000,-0.100000)"
fill="#000000" stroke="none">
<path d="M1285 2488 c-30 -17 -44 -40 -45 -70 -1 -69 41 -109 118 -114 26 -1
90 -5 142 -8 52 -4 104 -8 115 -10 11 -2 43 -7 70 -11 154 -21 392 -111 416
-157 13 -24 5 -35 -14 -20 -27 23 -176 75 -266 94 -114 23 -256 31 -305 16
-54 -17 -85 -56 -92 -115 -6 -61 10 -100 58 -136 31 -23 58 -31 153 -42 153
-17 385 -74 385 -93 -1 -22 -19 -34 -41 -26 -13 4 -28 9 -34 10 -5 1 -30 7
-55 13 -25 6 -80 11 -122 11 -66 0 -80 -3 -97 -21 -27 -29 -32 -69 -13 -101
19 -32 26 -36 117 -57 l70 -17 -63 -42 c-126 -86 -315 -171 -488 -221 -205
-59 -277 -231 -179 -422 50 -96 193 -126 360 -75 434 130 797 410 894 686 20
59 21 25 2 -53 -34 -132 -84 -212 -210 -337 -104 -103 -230 -188 -408 -277
-148 -74 -200 -117 -230 -192 -31 -75 -17 -180 34 -237 61 -70 164 -71 302 -4
276 137 526 377 596 575 28 76 35 75 14 -2 -25 -92 -70 -204 -89 -223 -3 -3
-22 -30 -43 -61 -20 -31 -71 -88 -112 -128 -77 -74 -92 -101 -80 -148 10 -40
34 -54 65 -38 56 30 169 173 219 278 55 118 66 186 66 417 -1 232 -11 300 -75
490 -16 47 -29 101 -29 121 -1 89 -108 289 -221 413 -172 189 -314 262 -630
326 -86 17 -232 22 -255 8z"/>
<path d="M815 2385 c-99 -35 -259 -116 -352 -177 -93 -62 -223 -190 -277 -271
-149 -226 -209 -513 -146 -697 38 -112 123 -219 220 -278 83 -50 186 -32 221
38 30 60 37 95 34 179 l-3 89 92 50 c50 27 114 62 143 76 87 43 109 80 82 140
-13 28 -57 49 -99 48 -44 -1 -169 -55 -268 -115 -88 -54 -89 -54 -111 -35 -18
14 -21 21 -12 32 40 48 292 184 428 232 73 26 153 82 175 124 15 27 18 48 15
91 -6 68 -21 94 -67 116 -30 14 -44 15 -100 5 -166 -29 -369 -147 -554 -322
l-74 -71 -11 32 c-10 28 -8 36 15 68 129 176 461 382 750 466 58 17 104 61
104 99 0 41 -20 83 -46 95 -38 17 -81 13 -159 -14z"/>
<path d="M13 1135 c8 -182 63 -406 124 -500 161 -249 657 -431 739 -272 37 70
-5 219 -79 284 -39 34 -76 49 -216 88 -192 53 -323 122 -424 227 -63 64 -122
172 -133 243 -12 77 -16 49 -11 -70z"/>
<path d="M132 535 c28 -63 62 -122 104 -181 140 -199 406 -329 710 -350 114
-8 159 0 180 31 13 21 13 27 0 59 -19 46 -55 62 -161 70 -97 8 -147 15 -200
26 -22 5 -54 11 -72 14 -47 9 -201 65 -263 96 -91 46 -194 125 -246 187 -26
32 -52 63 -57 68 -4 6 -2 -3 5 -20z"/>
</g>
</svg>
