<svg xmlns="http://www.w3.org/2000/svg" viewBox="0 0 176.11 96.53"><defs><style>.cls-1{fill:#695339;}.cls-1,.cls-2{fill-rule:evenodd;}.cls-2{fill:#ae9675;}</style></defs><title>logo</title><g id="Слой_2" data-name="Слой 2"><g id="Слой_1-2" data-name="Слой 1"><path class="cls-1" d="M3.62,78.94H0V59.67H3.62v8.47h7.94V59.67h3.62V78.94H11.56V69.65H3.62v9.28Zm27.33,0H19.41V59.67H30.83v1.23H23.06v7.45h7.33v1.26H23.06v8.12h7.88v1.23Zm4.88,0H34.28V59.67h3.24l10.1,13.25.06-13.25h1.55V78.94H47.62L35.88,63.55l-.06,15.39Zm21.25-18V77.71h2.25q3.94,0,5.69-2.57a9.58,9.58,0,0,0,1.34-5.43,10.53,10.53,0,0,0-1.69-6.22,5.94,5.94,0,0,0-5.14-2.6Zm-3.65,18V59.67h6.31a10,10,0,0,1,7.74,3.09A9.82,9.82,0,0,1,70,69.65a8.93,8.93,0,0,1-2.69,6.95,9.89,9.89,0,0,1-6.92,2.34Zm22.95,0H72.73V59.67h8.12A5.74,5.74,0,0,1,85,61.17a5.17,5.17,0,0,1,1.56,3.9,4.25,4.25,0,0,1-1.39,3.36,6.5,6.5,0,0,1-3.66,1.49l5.14,9h-4l-5.28-9.87h.26a6.62,6.62,0,0,0,3.85-.93A3.58,3.58,0,0,0,82.91,65a4,4,0,0,0-1-2.83,4.72,4.72,0,0,0-3.62-1.26h-2v18Zm16.82,0H89.57V59.67h3.62V78.94Zm8.93-9.14L95.59,59.67h4.32l4.55,6.89,4.93-6.89h2.07l-6,8.41,7.09,10.86h-4.5l-4.93-7.59-5.46,7.59h-2l6.48-9.14Zm23.76-8.9v7.36h2.54a4.14,4.14,0,0,0,2.63-.76,3.29,3.29,0,0,0,1.17-2.77,3.77,3.77,0,0,0-.82-2.57,4.65,4.65,0,0,0-3.65-1.26Zm0,8.61v8.2h2.89a4.09,4.09,0,0,0,3.36-1.26,4.2,4.2,0,0,0,.79-2.69,4.61,4.61,0,0,0-.82-2.72,3.68,3.68,0,0,0-3.18-1.55Zm-3.65,9.43V59.67h8a5.46,5.46,0,0,1,4.44,1.78,4.76,4.76,0,0,1,1.14,3.12,4.22,4.22,0,0,1-.93,2.79,4.68,4.68,0,0,1-2.45,1.53,5.66,5.66,0,0,1,3,1.69,4.51,4.51,0,0,1,1.08,3.09,4.91,4.91,0,0,1-1.4,3.68,6.48,6.48,0,0,1-4.73,1.58Zm25.2-6.31-2.83-7.07-2.8,7.07Zm6.28,6.31H150l-2-5.05h-6.66l-1.93,5.05h-1.69l7.85-19.85,8.17,19.85Zm6.25,0h-3.62V59.67H160V78.94Zm16.15,0H164.72V59.67h3.65V77.42h7.74v1.52Z"/><polygon class="cls-1" points="71.16 38.88 63.85 38.88 63.85 0 71.16 0 71.16 17.08 87.18 17.08 87.18 0 94.48 0 94.48 38.88 87.18 38.88 87.18 20.15 71.16 20.15 71.16 38.88 71.16 38.88"/><path class="cls-1" d="M87,46c25.38,0,46-2.38,46-1.8s-20.58,4.65-46,4.65-46-4.07-46-4.65S61.65,46,87,46Z"/><path class="cls-2" d="M87,50.33c22.74,0,41.19-2.13,41.19-1.62S109.77,52.88,87,52.88s-41.19-3.65-41.19-4.17S64.29,50.33,87,50.33Z"/><path class="cls-1" d="M43.77,95l.69-.51a3.18,3.18,0,0,0,.87,1,2.05,2.05,0,0,0,1.17.32,1.82,1.82,0,0,0,1.24-.49A1.57,1.57,0,0,0,48.31,94a2,2,0,0,0-1.2-1.81l-2.24-1a2.5,2.5,0,0,1-1.22-2.26,2.75,2.75,0,0,1,.9-2.07,3.2,3.2,0,0,1,2.3-.85,3.52,3.52,0,0,1,1.78.47,2.91,2.91,0,0,1,1.22,1.3l-.65.42a2.94,2.94,0,0,0-.77-1,2,2,0,0,0-1.28-.41,1.5,1.5,0,0,0-1.18.5,1.79,1.79,0,0,0-.44,1.23q0,.93,1.2,1.52L49,91.13a2.71,2.71,0,0,1,1.22,2.36,2.77,2.77,0,0,1-1,2.18,3.36,3.36,0,0,1-2.28.87,4.4,4.4,0,0,1-1.84-.36A2.9,2.9,0,0,1,43.77,95ZM56,93l-1.46-3.64L53,93Zm3.24,3.25H57.28l-1.05-2.6H52.79l-1,2.6h-.87L55,86l4.22,10.24Zm7.27,0H60.59V86.31h1.88v9.16h4v.78Zm7.06,0H67.58V86.31h5.89v.63h-4v3.84h3.78v.65H69.46v4.19h4.07v.63ZM75.08,95l.69-.51a3.17,3.17,0,0,0,.87,1,2.05,2.05,0,0,0,1.17.32,1.82,1.82,0,0,0,1.24-.49A1.57,1.57,0,0,0,79.61,94a2,2,0,0,0-1.2-1.81l-2.24-1a2.5,2.5,0,0,1-1.22-2.26,2.75,2.75,0,0,1,.9-2.07,3.2,3.2,0,0,1,2.3-.85,3.51,3.51,0,0,1,1.78.47,2.91,2.91,0,0,1,1.22,1.3l-.65.42a2.93,2.93,0,0,0-.77-1,2,2,0,0,0-1.28-.41,1.5,1.5,0,0,0-1.18.5,1.79,1.79,0,0,0-.44,1.23q0,.93,1.2,1.52l2.24,1.07a2.71,2.71,0,0,1,1.22,2.36,2.77,2.77,0,0,1-1,2.18,3.36,3.36,0,0,1-2.28.87,4.4,4.4,0,0,1-1.84-.36A2.9,2.9,0,0,1,75.08,95Zm14.2,1.26H87.41V86.31h1.87v4.37h4.1V86.31h1.87v9.94H93.37V91.46h-4.1v4.79Zm9.35-5a7.15,7.15,0,0,0,.56,3,2.56,2.56,0,0,0,4.73,0,8.43,8.43,0,0,0,0-6.07,2.49,2.49,0,0,0-2.38-1.58,2.45,2.45,0,0,0-2.35,1.57,7.09,7.09,0,0,0-.57,3Zm-2,0A5.32,5.32,0,0,1,98,87.54a4.89,4.89,0,0,1,7.08,0,5.72,5.72,0,0,1,0,7.48A4.89,4.89,0,0,1,98,95a5.32,5.32,0,0,1-1.39-3.74Zm11.28-5h1.88v7.11a1.93,1.93,0,0,0,.77,1.63,2.2,2.2,0,0,0,1.35.47,3,3,0,0,0,1.52-.36,1.76,1.76,0,0,0,.87-1.64v-7.2h.8v7.42a2.54,2.54,0,0,1-.8,1.88,3.72,3.72,0,0,1-2.7.92,4.42,4.42,0,0,1-2.47-.63,2.81,2.81,0,0,1-1.23-2.53V86.31ZM117.15,95l.69-.51a3.18,3.18,0,0,0,.87,1,2.05,2.05,0,0,0,1.17.32,1.82,1.82,0,0,0,1.24-.49,1.57,1.57,0,0,0,.55-1.23,2,2,0,0,0-1.2-1.81l-2.24-1A2.5,2.5,0,0,1,117,88.95a2.75,2.75,0,0,1,.9-2.07,3.2,3.2,0,0,1,2.3-.85,3.51,3.51,0,0,1,1.78.47,2.91,2.91,0,0,1,1.22,1.3l-.65.42a2.93,2.93,0,0,0-.77-1,2,2,0,0,0-1.28-.41,1.5,1.5,0,0,0-1.18.5,1.79,1.79,0,0,0-.44,1.23q0,.93,1.2,1.52l2.24,1.07a2.71,2.71,0,0,1,1.22,2.36,2.77,2.77,0,0,1-1,2.18,3.36,3.36,0,0,1-2.28.87,4.4,4.4,0,0,1-1.84-.36A2.9,2.9,0,0,1,117.15,95Zm14.09,1.26h-5.95V86.31h5.89v.63h-4v3.84H131v.65h-3.78v4.19h4.07v.63Z"/><path class="cls-2" d="M95.66,21.07H97.8a8.45,8.45,0,0,0,5.33-1.54,6.7,6.7,0,0,0,2.37-5.63,7.63,7.63,0,0,0-1.66-5.21c-1.5-1.7-4-2.55-7.41-2.55h-.72V3.65h5.82q6,0,9,3.61a9.63,9.63,0,0,1,2.31,6.34,8.56,8.56,0,0,1-1.9,5.66,9.49,9.49,0,0,1-5,3.11,11.5,11.5,0,0,1,6.16,3.44,9.15,9.15,0,0,1,2.19,6.28,10,10,0,0,1-2.84,7.47q-3.26,3.19-9.6,3.2H87.19V40.26H98.52c3.16,0,5.44-.84,6.81-2.55a8.46,8.46,0,0,0,1.6-5.45,9.28,9.28,0,0,0-1.66-5.51,7.43,7.43,0,0,0-6.46-3.14H95.66V21.07Z"/></g></g></svg>