<svg xmlns="http://www.w3.org/2000/svg" viewBox="0 0 202.48 100.3"><defs><style>.cls-1,.cls-9{fill:#352869;}.cls-1,.cls-10,.cls-13,.cls-14,.cls-15,.cls-16,.cls-17,.cls-18,.cls-2,.cls-20,.cls-21,.cls-22,.cls-23,.cls-24,.cls-26,.cls-27,.cls-28,.cls-3,.cls-4,.cls-5,.cls-7,.cls-8{fill-rule:evenodd;}.cls-2{fill:#fff;}.cls-19,.cls-3{fill:#2e83c5;}.cls-11,.cls-4{fill:#24211c;}.cls-5{fill:#f7d297;}.cls-12,.cls-6{fill:#231f20;stroke:#f9c48b;stroke-miterlimit:10;}.cls-6{stroke-width:0.57px;}.cls-7{fill:#66bbea;}.cls-8{fill:#f9c48b;}.cls-10{fill:#f9c589;}.cls-12{stroke-width:0.43px;}.cls-13{fill:#f6d7a5;}.cls-14{fill:#d7eaf2;}.cls-15{fill:#f1e517;}.cls-16{fill:#f5ec70;}.cls-17{fill:#d3e9f2;}.cls-18{fill:#e64115;}.cls-20{fill:#25221e;}.cls-21{fill:#24201d;}.cls-22{fill:#6abfec;}.cls-23{fill:#67bcea;}.cls-24{fill:#26abe2;}.cls-25{fill:#be6d36;}.cls-26{fill:#fcc602;}.cls-27{fill:#73b73f;}.cls-28{fill:#f08111;}</style></defs><title>Ресурс 1</title><g id="Слой_2" data-name="Слой 2"><g id="Слой_1-2" data-name="Слой 1"><path class="cls-1" d="M173.42,64.68a2.09,2.09,0,0,0,.12,2.18,2,2,0,0,0,2,.9A9.79,9.79,0,0,1,182,69.25a2.08,2.08,0,0,0,2,.14,9.93,9.93,0,0,1,10.15,1.44,16.47,16.47,0,0,1,4.26,5.1,26.87,26.87,0,0,1,2.26,5.23,3.6,3.6,0,0,1,.15.38.13.13,0,0,0,0,.11q.28.79.56,1.58c.87,2.67,1.48,5.72.71,8.47A9,9,0,0,1,189,97.2a2,2,0,0,0-2-.07,7.67,7.67,0,0,1-7.21-.28,1.94,1.94,0,0,0-1.76-.11,16.51,16.51,0,0,1-1.8.46,9.25,9.25,0,0,1-6-1,2.08,2.08,0,0,0-2.14.08,15.36,15.36,0,0,1-17.39-.62,2.14,2.14,0,0,0-2.56,0,15.37,15.37,0,0,1-18,.36,2,2,0,0,0-2.48.08A9.8,9.8,0,0,1,124.14,98a11.78,11.78,0,0,1-3.41.54,20,20,0,0,1-2.59-.26c-.49,0-1-.11-1.54-.14-2.11-.11-4.21-.17-6.31-.36a9.9,9.9,0,0,1-2.1-.33,8.84,8.84,0,0,1-2.71-1.35,8.08,8.08,0,0,1-.83-.71,2.48,2.48,0,0,0-.34-.26c-.18-.11-.37-.26-.56-.37a6.89,6.89,0,0,1-.79-.71,2,2,0,0,0-1.54-.56,4.84,4.84,0,0,1-1.62-.26,2.15,2.15,0,0,0-2.4.87,10.08,10.08,0,0,1-1.19,1.59A13.62,13.62,0,0,1,92,98.77a19.51,19.51,0,0,1-9.83,1.39,7.54,7.54,0,0,1-4.06-2,2.07,2.07,0,0,0-2.29-.44,5.64,5.64,0,0,1-1.05.38,12.38,12.38,0,0,1-4.39.51c-2.29-.14-4.54-.32-6.84-.39a25.9,25.9,0,0,1-5.64-.7,9,9,0,0,1-.9-.33,2,2,0,0,0-1.69.08,9.47,9.47,0,0,1-1.72.61,7.3,7.3,0,0,1-5.64-1.07,2.06,2.06,0,0,0-2.22,0c-.41.22-.83.42-1.24.61a13.25,13.25,0,0,1-2.7.84,10.19,10.19,0,0,1-7.48-1.33,2,2,0,0,0-2.1-.11,21.37,21.37,0,0,1-9.64,2c-1.43,0-2.82,0-4.21,0s-2.67-.14-4-.29a16.25,16.25,0,0,1-4.17-1,11.1,11.1,0,0,1-3.69-2.32c-.11-.07-.19-.15-.3-.22a9.84,9.84,0,0,1-2.67-2.63c-2-2.89-2-6.21-1.16-9.52a11.81,11.81,0,0,0,.48-2.83,7.2,7.2,0,0,0-.5-2.37c-.23-.6-.49-1.17-.72-1.77A16.51,16.51,0,0,1,0,68.24a11.41,11.41,0,0,1,3.51-7.8c3.67-3.48,9.22-4.06,14-2.94.57.15,1.17.29,1.73.48a14.71,14.71,0,0,1,6.06,3.63,2.06,2.06,0,0,0,2.29.44,2,2,0,0,0,1.31-1.92,17,17,0,0,1,1-5.61A2,2,0,0,0,29.83,53,14.13,14.13,0,0,1,32.6,37.75a13.36,13.36,0,0,1,4.95-3.33,2,2,0,0,0,1.23-1.32,18.72,18.72,0,0,1,7.4-10A18.31,18.31,0,0,1,57.52,20a2.06,2.06,0,0,0,1.72-.76,13.23,13.23,0,0,1,2.92-2.68,13.7,13.7,0,0,1,10.1-2.11A11.92,11.92,0,0,1,76.43,16a1.88,1.88,0,0,0,1.62.18l1.05-.23a2,2,0,0,0,1.39-1A14.22,14.22,0,0,1,82,12.85a14.4,14.4,0,0,1,15.23-4A2,2,0,0,0,99.5,8.2,23.28,23.28,0,0,1,114.12.36a30.36,30.36,0,0,1,13,.82,2.29,2.29,0,0,0,.72.11,14.44,14.44,0,0,1,3.6.21,17.59,17.59,0,0,1,3.46,1.08A16.64,16.64,0,0,1,138,4.5a10.73,10.73,0,0,1,3.54,5.07,3.92,3.92,0,0,1,.23.75,1.76,1.76,0,0,0,.38.75,36.05,36.05,0,0,1,2.76,4,2.08,2.08,0,0,0,2.11,1,19.25,19.25,0,0,1,3-.28,23,23,0,0,1,16.58,6.12,22.8,22.8,0,0,1,6.35,10.9A27.32,27.32,0,0,1,173.35,44a1.9,1.9,0,0,0,.23,1.35,19.61,19.61,0,0,1,2.33,10.8,20.26,20.26,0,0,1-2.49,8.55Z"/><path class="cls-2" d="M172.21,64a19.19,19.19,0,0,0,2.3-8,17.87,17.87,0,0,0-2.18-10,3.47,3.47,0,0,1-.38-2.26,25.87,25.87,0,0,0-.38-10.61,21.09,21.09,0,0,0-21.57-16,22.4,22.4,0,0,0-2.74.24,3.36,3.36,0,0,1-3.54-1.68,38,38,0,0,0-2.64-3.79,3.72,3.72,0,0,1-.64-1.28,4.61,4.61,0,0,0-.19-.68,9,9,0,0,0-3.09-4.36,13.74,13.74,0,0,0-2.82-1.76,15.31,15.31,0,0,0-3.16-1,13.64,13.64,0,0,0-3.27-.21,4.17,4.17,0,0,1-1.17-.15,29.49,29.49,0,0,0-12.43-.79A21.63,21.63,0,0,0,100.6,9.14a3.46,3.46,0,0,1-3.79,1,11.73,11.73,0,0,0-4.13-.63,13,13,0,0,0-9.6,4.25,13.58,13.58,0,0,0-1.38,1.89,3.54,3.54,0,0,1-2.32,1.67,6.84,6.84,0,0,0-.94.19,3.37,3.37,0,0,1-2.74-.37A11.46,11.46,0,0,0,72,15.79a12.21,12.21,0,0,0-9,1.91,13.32,13.32,0,0,0-2.66,2.38,3.27,3.27,0,0,1-2.85,1.29,17,17,0,0,0-10.51,2.9,17.33,17.33,0,0,0-6.81,9.25A3.3,3.3,0,0,1,38,35.7a12.77,12.77,0,0,0-4.42,3,12.64,12.64,0,0,0-2.47,13.75A3.54,3.54,0,0,1,31.23,55a15.83,15.83,0,0,0-.92,5.12,3.39,3.39,0,0,1-2.17,3.25,3.47,3.47,0,0,1-3.83-.82,13.51,13.51,0,0,0-5.46-3.26l-1.65-.45c-4.29-1-9.39-.53-12.73,2.6a10,10,0,0,0-3.06,6.86,15.49,15.49,0,0,0,1.49,7c.23.6.49,1.2.72,1.81a8.21,8.21,0,0,1,.58,2.86,13,13,0,0,1-.52,3.16c-.7,2.9-.81,5.84,1,8.39A8.17,8.17,0,0,0,7,93.74a2.5,2.5,0,0,1,.49.41,9.77,9.77,0,0,0,3.27,2,14.72,14.72,0,0,0,3.8.93c1.28.14,2.59.22,3.87.29s2.78,0,4.13,0a20.11,20.11,0,0,0,9-1.87,3.4,3.4,0,0,1,3.53.18,8.79,8.79,0,0,0,6.46,1.11,10.55,10.55,0,0,0,2.36-.72A6,6,0,0,0,45,95.54a3.42,3.42,0,0,1,3.68.1,6,6,0,0,0,4.58.89A5.44,5.44,0,0,0,54.65,96a3.44,3.44,0,0,1,2.85-.12,6,6,0,0,0,.75.26,22.92,22.92,0,0,0,5.34.62c2.29.07,4.58.25,6.84.43a11.6,11.6,0,0,0,3.94-.43l.9-.34a3.46,3.46,0,0,1,3.8.7,5.84,5.84,0,0,0,3.31,1.61,17.59,17.59,0,0,0,9-1.27,11.21,11.21,0,0,0,3.75-2.72,8,8,0,0,0,1.08-1.44,3.47,3.47,0,0,1,4-1.41,4.13,4.13,0,0,0,1.16.18,3.25,3.25,0,0,1,2.52.93,5.58,5.58,0,0,0,.71.6c.15.11.3.22.49.34a3,3,0,0,1,.52.45c.23.19.45.41.72.6a6.55,6.55,0,0,0,2.18,1.08,11.2,11.2,0,0,0,1.92.3c2.07.18,4.17.25,6.23.35.56,0,1.09.11,1.65.18.79.07,1.62.18,2.41.22a11.68,11.68,0,0,0,3-.46A9.45,9.45,0,0,0,126.84,95a3.48,3.48,0,0,1,4.16-.09,14,14,0,0,0,8,2.46,13.65,13.65,0,0,0,8.33-2.82,3.49,3.49,0,0,1,4.21,0,13.68,13.68,0,0,0,8.35,2.76,13.84,13.84,0,0,0,7.46-2.17,3.33,3.33,0,0,1,3.53-.13,8.3,8.3,0,0,0,5.11.81,10.8,10.8,0,0,0,1.58-.42,3.43,3.43,0,0,1,3,.21,6.22,6.22,0,0,0,5.86.25,3.44,3.44,0,0,1,3.31.1,7.56,7.56,0,0,0,11.1-4.67c.7-2.49.09-5.27-.66-7.64-.19-.53-.38-1-.57-1.5,0-.08,0-.15-.08-.23s-.07-.23-.11-.38a30.43,30.43,0,0,0-2.16-5,15.69,15.69,0,0,0-3.92-4.69,8.53,8.53,0,0,0-8.72-1.25,3.44,3.44,0,0,1-3.3-.25,8.51,8.51,0,0,0-5.57-1.26,3.44,3.44,0,0,1-3.31-1.5,3.38,3.38,0,0,1-.16-3.65Z"/><path class="cls-1" d="M83.62,20.83a8.12,8.12,0,0,1,2.05-4.71,9.56,9.56,0,0,1,14.46.4c12,3.16,23.87,5.53,35.9,8.65,3.71-2.24,9.64-4.4,14.07-4.49a18.1,18.1,0,0,1,13.13,4.77A18,18,0,0,1,168.17,34a23,23,0,0,1-.07,11.18l-.15.53A14.31,14.31,0,0,1,171,55.81a14.91,14.91,0,0,1-4.47,9.88,12.42,12.42,0,0,1-9.68,3.42c.8,2.41.21,7-1.21,8.17l-1.5.15c-2.81,1.1-.58-4.74-3.41-7.14S138.68,78.62,136,83.9l-3.65-1.57c-1.81-2-4.53-7.18-7.31-7.81a4.73,4.73,0,0,0,0-1,5.72,5.72,0,0,0-2.23-3.79,7,7,0,0,0-2.6-3.75c-4.25-3.11-12-3.12-16.68-1-3.9,1.78-5.39,5-5.3,9.16a14.34,14.34,0,0,0,.8,4.18c.38,1.09.83,2.14,1.14,3.23l0,.19-2-.63-1-.33c-.6-.19-1.2-.41-1.81-.56a20.81,20.81,0,0,0-5-.89,7.42,7.42,0,0,0-2.7.42,4.66,4.66,0,0,0-3,3.81,6.12,6.12,0,0,0-.91-1.05c-.19-.37-.34-.75-.53-1.09-1.81-3.42-5.39-5.29-9-3.21a20.07,20.07,0,0,0-1.72,1.25,8.27,8.27,0,0,1-1,.72h-.22a5.38,5.38,0,0,1-.64-1,7.8,7.8,0,0,0-2-2.4,6.76,6.76,0,0,0-8.26-.16,6.19,6.19,0,0,0-1.64,2c-3.27-1.27-24.93,2-23.94-14.08,0-.07-.07-.15-.11-.22-2-4.17-.14-9.11,1.2-10.77l-.72-1.13a9.12,9.12,0,0,1,1-11.41,8.67,8.67,0,0,1,6.6-2.69v0a14.31,14.31,0,0,1,6.16-11.2,14,14,0,0,1,12.42-1.51,8.71,8.71,0,0,1,3.55-5.05,8.83,8.83,0,0,1,6.49-1.34A7.58,7.58,0,0,1,76,22c.15.19.3.41.45.6a7.33,7.33,0,0,1,4.8-2,8.73,8.73,0,0,1,2.4.22Z"/><path class="cls-3" d="M35.32,64.32c-1.33-3.5,0-9.56,1.47-10.62,3.4-3.44,5.28-4.16,9.94-4.74a14.39,14.39,0,0,0-10.5,3.61L35.84,52c-3.92-5.6.63-13.4,7.32-12.79l1.62.82-1.17-1.69A13.05,13.05,0,0,1,62,26.77c1.21-8.7,14.84-10.06,15.25,1.57a7.71,7.71,0,0,0-.39-5c1.27-1.59,4.61-2.46,7.05-1.53a9.19,9.19,0,0,0,1.82,5.08c-.57-1.62-1.4-3.46-1.29-5.45.09-7.08,10-10.69,15.23-4.16,12.21,3.2,24.32,6.09,36.54,9.29,4-2.72,8.92-4.92,13.88-5.05,12.32-.38,20.5,10.36,17.21,23.51l-2.56-.63,2.15,1.31c7.73,8.63,1.58,24.05-11.5,22.4a4.44,4.44,0,0,1-1.77-1.16A7.24,7.24,0,0,0,156,69.3a5.18,5.18,0,0,1-1.14,5l0,0c-1.26,4.9-9,11.06-12.08,3.77-1.14-2.71-2.87-5.34-6.23.36L134.62,86l-6.07-5.93c-2-1.16-6.24-1.37-6.66-2.57-1.8.15-4.45-4.24-3.78-7-.42-1.51-.95-1.58-2.22-2.51-4.22-3.11-4.11-5.18-8.8-3.06-3.9,1.78-4.64,4.95-4.55,9.13,0,1.43.87,2.37,1.33,3.76.38,1.05,1,2.22,1.29,3.31l-1.39.57-2-.63-1-.34c-.6-.19-1.21-.41-1.8-.56a60.6,60.6,0,0,0-8.64-.88,7.42,7.42,0,0,0-2.7.42,4.66,4.66,0,0,0-3,3.81,6.12,6.12,0,0,0-.91-1.05c-.19-.37-.34-.75-.53-1.09-1.81-3.42-5.39-5.29-9-3.21a20.07,20.07,0,0,0-1.72,1.25,8.27,8.27,0,0,1-1,.72h-.22a5.38,5.38,0,0,1-.64-1,7.8,7.8,0,0,0-2-2.4,6.76,6.76,0,0,0-8.26-.16,6.83,6.83,0,0,0-1.68,2c-2-2.7-5.52-.89-9-1.63-5.26-1.45-15.3-3.49-14.35-12.75Zm65.92,24.25-.34-.11a.37.37,0,0,1,.15-.19l.15-.19a2.33,2.33,0,0,0,0,.49Z"/><path class="cls-4" d="M98.28,47.25l1.13,1.09s-.22,1.09-.37,1.09-3.53-.33-4.17-.51-.49-1.73.07-1.73,3.34.06,3.34.06Z"/><path class="cls-5" d="M115.49,60.4c.23-.08.41-.19.64-.27,1.83-.8,5.18-.4,5.19,3.26-2-.22-2.55.31-4.09,1.63l-.56,0c-.23-1.8,0-2.71-1-4.33-.08-.11-.11-.22-.19-.34Z"/><path class="cls-6" d="M115.34,60.06l.64-.26h0a4.7,4.7,0,0,1,1.84-.38,4.36,4.36,0,0,1,2,.48,3.14,3.14,0,0,1,1.51,1.65,4.7,4.7,0,0,1,.34,1.84v.41l-.41-.07c-1.77-.18-2.33.31-3.72,1.52l-.07.08-.11.08h-.11l-.6,0-.33,0,0-.34c0-.45-.08-.79-.12-1.13a6.24,6.24,0,0,0-.84-3.12l-.19-.3-.19-.38Zm.94.41h0l-.27.11a6.65,6.65,0,0,1,.92,3.35,5.59,5.59,0,0,0,.08.75h.07c1.46-1.29,2.1-1.82,3.86-1.71a3,3,0,0,0-.27-1.13,2.67,2.67,0,0,0-1.17-1.31,3.8,3.8,0,0,0-1.69-.37,4,4,0,0,0-1.54.31Z"/><path class="cls-7" d="M101,65.19c22.42-.08,40.6,1.14,40.61,2.69s-18.17,2.92-40.59,3-40.56-1.14-40.57-2.72,18.13-2.89,40.55-3Z"/><path class="cls-8" d="M97.31,26.84c-1.81-1.12-3-.4-3.49.69a7.27,7.27,0,0,0,.92,5.87c.23.26,1,1.43,1.58,1.5.07,0,.19,0,.22,0,.11-.3.41-.57.52-.83s.3-.15.49-.41a9.81,9.81,0,0,1,.53-.83c.18-.27.56-.72.67-.91a.75.75,0,0,0,.11-.6,4.43,4.43,0,0,0-.22-.45,4.05,4.05,0,0,1-.53-1.66,15.33,15.33,0,0,0-.8-2.26s0-.08,0-.08Z"/><path class="cls-9" d="M97.12,27c-.19-.11-.34-.19-.49-.26h0a2.3,2.3,0,0,0-1.54-.14,1.7,1.7,0,0,0-.93.76,1.16,1.16,0,0,0-.15.3,5,5,0,0,0-.18,2.86h0a6,6,0,0,0,1.06,2.78v0l.11.11h0c.26.37.94,1.28,1.36,1.31h0s0,0,0,0v0h0a1.93,1.93,0,0,1,.34-.53l.22-.34a.82.82,0,0,1,.34-.3h0s.08,0,.15-.11.11-.19.19-.3h0a2.39,2.39,0,0,1,.34-.53h0l.18-.26h0c.19-.23.41-.49.49-.61h0c0-.07.07-.19.11-.26h0c0-.07,0-.15,0-.15h0a.27.27,0,0,1-.08-.15,2.55,2.55,0,0,0-.15-.3A3.67,3.67,0,0,1,98,29.55a1.16,1.16,0,0,1-.08-.3A9.25,9.25,0,0,0,97.54,28a10.18,10.18,0,0,0-.38-1s0,0,0-.08Zm-.38-.6a2.17,2.17,0,0,1,.64.34l.11.07v.08a8,8,0,0,1,.38,1.05c.15.41.3.86.42,1.24a.69.69,0,0,0,.07.34,3.23,3.23,0,0,0,.42,1.24,1.85,1.85,0,0,1,.19.38.2.2,0,0,1,0,.11h0a.44.44,0,0,1,0,.38.76.76,0,0,1-.15.41h0c-.11.15-.34.42-.52.68h0l-.19.23a2.2,2.2,0,0,0-.3.49h0l-.23.34a.53.53,0,0,1-.34.26h0s-.08,0-.11.11a3.31,3.31,0,0,1-.26.38v0a1.17,1.17,0,0,0-.26.38h0c-.08.23-.26.19-.41.19h0C95.73,35,95,34,94.71,33.63l-.11-.11h0a7.19,7.19,0,0,1-1.13-3h0a6.21,6.21,0,0,1,.17-3.05,1.43,1.43,0,0,0,.19-.34A2.08,2.08,0,0,1,95,26.17a2.5,2.5,0,0,1,1.76.18Zm-.38,8.43h0v0Zm0,0Z"/><path class="cls-8" d="M139.12,41c1.43-.31,2,.41,2.11,1.24A3.31,3.31,0,0,1,140,45a6.23,6.23,0,0,1-3.75,1,15.86,15.86,0,0,1-.31-1.62.46.46,0,0,1,.23-.49c.49-.08,2.47-3.1,2.28-3.24a6.11,6.11,0,0,1,.64.41Z"/><path class="cls-9" d="M139.16,40.82h.11a1.87,1.87,0,0,1,1.51.26,1.68,1.68,0,0,1,.6,1.05h0l0,.11h0a2.65,2.65,0,0,1-.23,1.47,5.31,5.31,0,0,1-1,1.39,3.75,3.75,0,0,1-1.65.8,14.39,14.39,0,0,1-1.46.3c-.49,0-.83,0-.91-.11h0v0h0l0,0c-.07-.26-.15-.72-.23-1.09a3.3,3.3,0,0,1-.07-.53h0a.64.64,0,0,1,.07-.45h0a.66.66,0,0,1,.3-.27h0s.12-.07.22-.15a12.3,12.3,0,0,0,1.24-1.66,9.72,9.72,0,0,0,.71-1.21l-.08-.07.11-.11s.11,0,.22,0l0,0,0,0c.15.08.34.23.48.3Zm.15.38a.29.29,0,0,0-.15,0h-.08l0,0-.11-.07h0c-.12-.07-.19-.38-.26-.41A8.45,8.45,0,0,1,138,42.1c-.45.64-1,1.32-1.31,1.7a1.08,1.08,0,0,1-.41.26.14.14,0,0,0,0,.07h0a.72.72,0,0,0-.07.19h0a3.92,3.92,0,0,1,.11.53c.08.34.15.75.19,1,.07,0,.3,0,.6,0a13.16,13.16,0,0,0,1.39-.27,3.72,3.72,0,0,0,1.5-.72,4.55,4.55,0,0,0,.94-1.28,2.18,2.18,0,0,0,.18-1.24v-.11a1.31,1.31,0,0,0-.49-.83,1.55,1.55,0,0,0-1.24-.18Z"/><path class="cls-8" d="M136,44.11c.19-.3.6-.34.86-.57a20.17,20.17,0,0,0,5.23-8.34c2.68-8.44,1.6-14.54-4-21.44a25.43,25.43,0,0,0-23.17-8.54A18.1,18.1,0,0,0,101,14.6c-2.43,4.15-4.89,10.71-3,15.56.19.41.68.75.72,1.2,0,.23-.6.61-1.27,1.66a8.57,8.57,0,0,0-1,7.27c1,3.46,3.63,6.28,5.77,8.41.19.19,1.17,1.16,1.39,1.09a7.68,7.68,0,0,1,8.57,2.94c.31.49.49.9.76,1.39.19.34.3.79.6,1a5.36,5.36,0,0,0,.94.37c5,1.56,14.05,1.91,18.78-1a6.7,6.7,0,0,0,3.14-4.3c.48-2,0-3.35-.36-5.35-.08-.26-.23-.56-.12-.79Z"/><path class="cls-5" d="M113.33,54.87c.41.22,1,.56,1.09.6a1.2,1.2,0,0,1,.3.07l.75.22.45.11c.11,0,.23,0,.3,0-.07,1.36.08,3-.55,4.18a8.13,8.13,0,0,1-.64-.56c-.23-.19-.45-.37-.72-.56a2.15,2.15,0,0,0-.3-.26,21.61,21.61,0,0,0-.39-3c0-.19-.26-.56-.3-.79Z"/><path class="cls-6" d="M113.48,54.53l.83.45.23.11h0l.26.07h0l.75.22.49.11h0l.26.07.3.07V56a6.39,6.39,0,0,1,0,.83,7.7,7.7,0,0,1-.55,3.5l-.22.41-.38-.3-.64-.6h0l-.68-.56-.3-.22-.11-.08,0-.19V58.6a19,19,0,0,0-.39-2.86h0s-.08-.19-.11-.3A4.25,4.25,0,0,1,113,55l-.15-.72Zm.87,1.28h0a1.09,1.09,0,0,1-.34-.15,26.15,26.15,0,0,1,.38,2.86l.15.15h0l.67.6h0l.23.22a9.32,9.32,0,0,0,.33-2.71c0-.19,0-.37,0-.57l-.49-.11h0l-.75-.18h0Zm1.2-.42h0"/><path class="cls-10" d="M90.91,67a6.67,6.67,0,0,1-4.62,1.26c-.19,0-.83.12-.64,0,.53-.19.49-1,.82-1.21s1.09.11,1.58-.27l2.86.22Z"/><path class="cls-11" d="M90.95,67.11a9.59,9.59,0,0,1-2.28,1.1,7.75,7.75,0,0,1-2.37.2,1,1,0,0,0-.34,0c-.23,0-.41,0-.45-.07h0c0-.08,0-.15.11-.19a1.18,1.18,0,0,0,.45-.64h0a1,1,0,0,1,.34-.56h0a1.11,1.11,0,0,1,.71-.08h0a1.39,1.39,0,0,0,.86-.19l0,0h0l2.85.22.41,0Zm-2.36.84a6.28,6.28,0,0,0,1.87-.87l-2.36-.18a1.57,1.57,0,0,1-1,.23.9.9,0,0,0-.56,0h0a1.07,1.07,0,0,0-.26.46h0a2.27,2.27,0,0,1-.26.53h.26a7.15,7.15,0,0,0,2.29-.2Z"/><path class="cls-8" d="M113.4,54.91a5.9,5.9,0,0,1-.38-.71,7.39,7.39,0,0,0-2.26-3.08A11.27,11.27,0,0,0,109,50a6.2,6.2,0,0,0-3.12-.78,13.15,13.15,0,0,0-2.33.53,15.65,15.65,0,0,1-3.53.73c-.41,0-1.2,0-1.62,0-1.39.12-1.24.23-1.95,1.29a13.91,13.91,0,0,0-.9,1.43,18.78,18.78,0,0,0-1.08,4,21.51,21.51,0,0,0-.06,5.57c.12,1.2-.11,1.2.8,2,.3.22.6.49.9.71.57.34,1.13.64,1.7,1s1.16.52,1.76.82a13.73,13.73,0,0,0,3.68.67,11.07,11.07,0,0,0,5.48-1c.67-.3,1.35-.68,2.18-1.14l4.85,3.26c2.25,0,4.47.06,6.72.13a3.45,3.45,0,0,0,1.34-3.73c-.95-3.35-5.72-3.44-6.95-.65a13.25,13.25,0,0,0-.73-3.84,2.74,2.74,0,0,0-.91-1.24,14.34,14.34,0,0,0-1.17-1,13.5,13.5,0,0,0-.73-3.88Z"/><path class="cls-12" d="M113.07,55.06l-.38-.72h0a12.88,12.88,0,0,0-.91-1.65,5.68,5.68,0,0,0-1.24-1.28,5.47,5.47,0,0,0-.75-.52c-.3-.19-.6-.34-.94-.52h0a5.58,5.58,0,0,0-1.43-.56,4.85,4.85,0,0,0-1.47-.18,10,10,0,0,0-1.8.38c-.15,0-.3.11-.45.15-.6.15-1.13.3-1.72.42a12.51,12.51,0,0,1-1.88.31h0a4.83,4.83,0,0,1-.79,0h-.79c-1,.08-1.05.16-1.39.68-.07.11-.15.26-.26.41h0l-.19.26h0a7.55,7.55,0,0,0-.67,1.1l0,.07h0a17.25,17.25,0,0,0-1,3.88h0a13.44,13.44,0,0,0-.22,2.75h0c0,.9.08,1.84.16,2.75a4.63,4.63,0,0,1,0,.64c0,.49,0,.56.61,1.05l.91.71,1.62.93,1.73.79a15.28,15.28,0,0,0,1.84.49h0a9.34,9.34,0,0,0,1.73.18,11,11,0,0,0,2.74-.16,10.36,10.36,0,0,0,2.59-.84c.34-.15.68-.3,1-.49s.75-.42,1.13-.64l.18-.11.19.15,4.78,3.18,6.46.13a3.59,3.59,0,0,0,1.08-1.51,2.88,2.88,0,0,0,.07-1.77,3.32,3.32,0,0,0-1.77-2,4.07,4.07,0,0,0-2.55-.18A3,3,0,0,0,117.27,65l-.56,1.25-.16-1.35a6.14,6.14,0,0,1-.08-.87,8.19,8.19,0,0,0-.65-2.86,2.59,2.59,0,0,0-.3-.64A2.81,2.81,0,0,0,115,60h0c-.15-.15-.34-.3-.57-.49s-.38-.34-.56-.49l-.15-.07v-.19l-.08-.45a9.86,9.86,0,0,0-.61-3.27Zm.26-1.06.41.75h0v0a10.49,10.49,0,0,1,.69,3.46l0,.3A5.31,5.31,0,0,1,115,59l.61.49h0a4.38,4.38,0,0,1,.57.64,3.52,3.52,0,0,1,.41.75,8.69,8.69,0,0,1,.65,2.9,3.85,3.85,0,0,1,1.84-1.1,4.22,4.22,0,0,1,1.54-.16,4.42,4.42,0,0,1,1.5.37,4,4,0,0,1,2.19,2.52,3.72,3.72,0,0,1-.07,2.22,4.63,4.63,0,0,1-1.42,1.89l-.11.11h-.11l-6.72-.13h-.11l-.11-.08-4.67-3.11c-.34.19-.64.34-.94.49s-.71.38-1.05.53a11.36,11.36,0,0,1-2.78.88,12,12,0,0,1-2.89.2,7.36,7.36,0,0,1-1.8-.22h0a13.43,13.43,0,0,1-2-.48h-.08l-1.73-.82h0v0L96,65.89v0h0L95,65.1c-.86-.67-.86-.83-.91-1.58a3.71,3.71,0,0,0,0-.6C94,62,94,61,94,60.1a15,15,0,0,1,.18-2.86h0a17.93,17.93,0,0,1,1.08-4h0l0-.12h0v0A13.39,13.39,0,0,1,96,51.88h0l.15-.26h0c.11-.15.18-.3.26-.41.52-.79.6-.91,2-1H100c.68-.08,1.28-.19,1.8-.31s1.09-.27,1.65-.42c.15,0,.3-.11.49-.15a8.74,8.74,0,0,1,1.95-.42,8.57,8.57,0,0,1,1.69.18,9.42,9.42,0,0,1,1.58.63h0a7.53,7.53,0,0,1,1,.56c.3.19.57.38.83.56a7,7,0,0,1,1.4,1.46,8.33,8.33,0,0,1,.95,1.73Z"/><path class="cls-11" d="M83.31,50.95A7.83,7.83,0,0,0,81,52.73a6.16,6.16,0,0,0-1.27,2.64,6.48,6.48,0,0,0-.15,1.32A11.44,11.44,0,0,0,79.73,58a7.31,7.31,0,0,0,.53,1.47,3.41,3.41,0,0,0,1,1.2l.53.45L81.09,61a4.24,4.24,0,0,0-1.91-.07L78.5,61a4.55,4.55,0,0,1-.64.26,3.69,3.69,0,0,0-.56.27l-.23.15a7.33,7.33,0,0,0-1.87,1.85l-.22.34-.11-.38a8.31,8.31,0,0,1-.16-.9,7.52,7.52,0,0,0-.19-1.09.62.62,0,0,0-.23-.3h0a2,2,0,0,0-.64-.26,1.67,1.67,0,0,0-.75.15,1.59,1.59,0,0,0-.49.38v0h0l-.26.26h0a1.07,1.07,0,0,1-.26.3v0h0a4.93,4.93,0,0,0-.75.53,2.47,2.47,0,0,1-1.84.76,4,4,0,0,0-2.14,1,2.47,2.47,0,0,0-.89,1.7.29.29,0,0,1-.23.3h0c-.11,0-.22,0-.33,0h-.15a1.39,1.39,0,0,0-.83.19c-.11.08-.23.12-.34.19a1.08,1.08,0,0,0-.26.19h0a.36.36,0,0,0-.15.19h0a.85.85,0,0,0,0,1,.69.69,0,0,1,.19.15,1.64,1.64,0,0,0,.34.11l.41.11a15,15,0,0,0,2.59.07h.57c3.49,0,7-.06,10.44-.11,1.54,0,3.08,0,4.58-.05A6.41,6.41,0,0,0,85.92,68a12.47,12.47,0,0,0,2.36-1.66h0a6.35,6.35,0,0,0,1-1A9.37,9.37,0,0,0,90.19,64l.18-.38c1.46-3.28,3.17-7.16,1.69-10.62a4.15,4.15,0,0,0-.86-1.39,5.67,5.67,0,0,0-1.55-1,6.57,6.57,0,0,0-2.89-.44,13,13,0,0,0-3.45.84ZM80.69,52.5a8.69,8.69,0,0,1,2.43-1.89h0v0a14,14,0,0,1,3.57-.8,6.4,6.4,0,0,1,3.08.44,6.25,6.25,0,0,1,1.66,1.12,4.37,4.37,0,0,1,1,1.5c1.51,3.61-.24,7.57-1.73,10.92l-.18.41h0a10.44,10.44,0,0,1-.94,1.4,4.24,4.24,0,0,1-1.09,1.06,13.27,13.27,0,0,1-2.44,1.7,6.52,6.52,0,0,1-2.93.57c-1.5,0-3,0-4.58.05-3.45,0-6.95.1-10.44.11h-.56A15.41,15.41,0,0,1,64.93,69a1.9,1.9,0,0,1-.49-.07,2.36,2.36,0,0,1-.45-.19l-.23-.23a1,1,0,0,1-.3-.71,1.13,1.13,0,0,1,.22-.75h0a.94.94,0,0,1,.19-.23h0a2.15,2.15,0,0,1,.34-.27c.11-.07.26-.11.38-.19a1.62,1.62,0,0,1,1-.23h.11c.11,0,.19,0,.23,0a2.83,2.83,0,0,1,1-1.89A4.24,4.24,0,0,1,69.27,63a2.4,2.4,0,0,0,1.65-.65,3.18,3.18,0,0,1,.75-.57c.07-.08.15-.19.22-.27h0a1.89,1.89,0,0,1,.26-.3,1.56,1.56,0,0,1,1.54-.65,1.35,1.35,0,0,1,.83.34.9.9,0,0,1,.34.41h0v0c.08.3.12.75.19,1.13h0c0,.15,0,.3.08.45a8.45,8.45,0,0,1,1.69-1.59l.22-.15v0h0a4.78,4.78,0,0,1,.64-.26l.6-.27v0h0l.72-.12a4.59,4.59,0,0,1,1.46,0,2.94,2.94,0,0,1-.64-.9,6,6,0,0,1-.53-1.5v0h0a12.07,12.07,0,0,1-.15-1.35,6.45,6.45,0,0,1,.15-1.36h0v0a6.68,6.68,0,0,1,1.35-2.79Z"/><path class="cls-8" d="M83.23,50.76a6.5,6.5,0,0,0-3.7,4.57,6.4,6.4,0,0,0,0,2.67,4.59,4.59,0,0,0,1.59,2.78,5.45,5.45,0,0,0-2.7,0c-.41.23-.82.34-1.24.57a7.94,7.94,0,0,0-2.13,2c-.11-.34-.19-1.43-.34-2a1.48,1.48,0,0,0-2.44-.07c-.19.19-.3.42-.49.6-1.12.76-1.12,1.13-2.47,1.25s-3.22,1.52-3.22,2.91c0,.11-.19.15-.37.15a1.66,1.66,0,0,0-1.05.23,2.56,2.56,0,0,0-.64.38,1,1,0,0,0,.08,1.66,1.94,1.94,0,0,0,.86.22,21.94,21.94,0,0,0,3.15.1c5,0,10-.11,15-.17,2.44,0,3.42-.73,5.25-2.24a6.28,6.28,0,0,0,1.94-2.41c1.53-3.39,3.47-7.46,1.92-11.15a4.46,4.46,0,0,0-2.53-2.51c-1.8-.78-3.95-.55-6.5.36Z"/><path class="cls-8" d="M79,60.86l-.26-.15c-.3-.11-.6-.19-.86-.26a2.53,2.53,0,0,0-.75,0,1.28,1.28,0,0,0-.78.38c-.49.45-.86.87-1.39,1.28l.16,1.36a9.19,9.19,0,0,1,1.72-1.7A6.32,6.32,0,0,1,79,60.86Z"/><path class="cls-13" d="M83.23,50.76a6.5,6.5,0,0,0-3.7,4.57,6.4,6.4,0,0,0,0,2.67,7,7,0,0,0,.64,1.69v0h0v0l0,0v0h0v0l0,0h0v0h0v0h0l0,0h0l0,0h0l0,0h0v0h0v0h0l0,0h0l0,0h0l0,0h0l0,0h0v0h0v0h0v0h0v0h0v0h0v0h0v0h0v0h0v0h0v0h0l0,0h0l0,0-.08,0h0a4.48,4.48,0,0,0-2.63.16,4.1,4.1,0,0,0-1.31.57c-.26.19-.53.34-.79.57h0v0h0l0,0h0a4.41,4.41,0,0,0-1.16,1.44c-.11-.34-.19-1.47-.34-2v0h0v0a1.47,1.47,0,0,0-2.22-.3c-.11.11-.3.34-.41.45s-.11.15-.15.19a.61.61,0,0,0-.15.19.8.8,0,0,0-.3.19c-.87.64-.94.94-2.18,1.06-1.43.15-3.22,1.52-3.22,2.91,0,.11-.19.15-.37.15a1.66,1.66,0,0,0-1.05.23h0l0,0h-.07v0h-.08v0h-.07v0h0l0,0h0v0h0a1.07,1.07,0,0,0-.48.61c2.52-.12,5.07.1,7.5-1.53.67-.38,3.07-2.16,3-.69,0,.38-.11.76.27.9.64.26.93-.45,1.23-.83,2.7-3.4,5.18-1.83,7.25-2,4.24-.43,8.38-7.82,6.79-12.79-1.8-.78-3.95-.55-6.5.36Z"/><path class="cls-11" d="M100,50.33a7.78,7.78,0,0,0-.45-1.54,1.73,1.73,0,0,0-.75-.79,2.73,2.73,0,0,0-1.32-.11,6.23,6.23,0,0,0-1.8.31l-.08-.11.08.11a.14.14,0,0,1-.19-.07c0-.08,0-.11.07-.15a4.07,4.07,0,0,1,2.59-.68A12.19,12.19,0,0,0,92.93,42a12.83,12.83,0,0,0-5.49-1.56,11.71,11.71,0,0,0-5.55,1.07,11.32,11.32,0,0,0-5.2,5,10.24,10.24,0,0,0-1.1,6.59,16.84,16.84,0,0,0,3.22,7.33h0l.08.11h0l0,0h0s.08,0,.15,0a3.14,3.14,0,0,1,1.58,0l.15,0a5.13,5.13,0,0,1-.64-.79,6.06,6.06,0,0,1-.87-2.41,6.25,6.25,0,0,1,.81-3.92,7.05,7.05,0,0,1,3.11-2.83A10,10,0,0,1,88,49.84a5.12,5.12,0,0,1,3.5,1.64,4.16,4.16,0,0,1,.79,1.2A6,6,0,0,1,92.78,54s0,.11,0,.15,0,.11,0,.19A5.83,5.83,0,0,1,92.94,56a15.55,15.55,0,0,1-.29,2.11,30,30,0,0,1-1.11,3.69A18.42,18.42,0,0,1,90,65h0a5.12,5.12,0,0,1-.52.72c-.19.22-.41.45-.64.68a1.51,1.51,0,0,1-.45.27,21.08,21.08,0,0,0,3.72.25,11.24,11.24,0,0,0,3.79-.73l.26-.49L95.37,65c-.83-.75-.83-.75-.94-1.43a5.39,5.39,0,0,0-.08-.64,14.4,14.4,0,0,1-.05-3.43,21.23,21.23,0,0,1,1.11-5.73c.63-1.77,1.53-3.09,2.69-3.32h.45c.34,0,.71,0,1.09-.08.11,0,.26,0,.38,0Zm-.23-1.65a6.85,6.85,0,0,1,.53,1.73v0c0,.07-.07.11-.15.15v0a2.53,2.53,0,0,0-.49,0c-.38,0-.79.08-1.12.08a.79.79,0,0,0-.41,0c-1.05.19-1.87,1.48-2.47,3.13a22.17,22.17,0,0,0-1.14,5.69,15.48,15.48,0,0,0,.09,3.35,5.93,5.93,0,0,1,.08.64,1.16,1.16,0,0,0,.34.75,4.14,4.14,0,0,0,.56.53l.83.75s.08.11,0,.15h0l-.37.64s-.07-.07-.11-.07h0v0a4.74,4.74,0,0,1-2.36.72l-1.5.12a29.7,29.7,0,0,1-4-.29h0c-.12,0-.15.11-.15,0a6.85,6.85,0,0,1,.75-.72c.19-.19.38-.42.6-.64a5,5,0,0,0,.48-.72h0a18.25,18.25,0,0,0,1.45-3.09,23.38,23.38,0,0,0,1.12-3.62,15.92,15.92,0,0,0,.3-2.11,5.6,5.6,0,0,0-.08-1.58v-.15a.24.24,0,0,1,0-.15A8.32,8.32,0,0,0,92,52.8a4.64,4.64,0,0,0-.76-1.13A4.78,4.78,0,0,0,88,50.1a10.23,10.23,0,0,0-4.69.77,6.73,6.73,0,0,0-3,2.76,5.92,5.92,0,0,0-.77,3.73,5.63,5.63,0,0,0,.79,2.29,3.94,3.94,0,0,0,.95,1h0a.12.12,0,0,1,0,.08h0s0,.08,0,.11a0,0,0,0,1,0,0l0,0h-.15l0-.08h0l0,.08a2.6,2.6,0,0,0-.49-.07,2.87,2.87,0,0,0-1.5,0,.12.12,0,0,0-.08,0h-.07v-.08h0v.08a.07.07,0,0,1-.11,0,.14.14,0,0,1-.11,0v0h0l0-.07h0l0-.11h0l.11-.08-.11.08a17.82,17.82,0,0,1-3.26-7.44,10.77,10.77,0,0,1,1.14-6.74,11.61,11.61,0,0,1,5.32-5.14,11.92,11.92,0,0,1,5.67-1.07A13.35,13.35,0,0,1,93,41.73a12.41,12.41,0,0,1,5.42,5.59.43.43,0,0,1,0,.08.1.1,0,0,1-.11.11h-.12a5.43,5.43,0,0,0-1.54.19,5.29,5.29,0,0,1,.75-.08,4.08,4.08,0,0,1,1.47.11,2.11,2.11,0,0,1,.87.94Z"/><path class="cls-2" d="M100.17,50.44c-.11-.71-.46-2.18-1.29-2.56a6.43,6.43,0,0,0-3.27.2,4.65,4.65,0,0,1,2.74-.69c-3.86-8.27-16.79-10.3-21.79-.94-2.42,4.56-1.13,9.45,2.11,14a.84.84,0,0,0,.15.19s0,0,.08,0a.62.62,0,0,0,.19-.08,4.1,4.1,0,0,1,2,.14h0s.07,0,0,0a4.59,4.59,0,0,1-1.78-3.38,6.6,6.6,0,0,1,3.81-6.6c2.44-1.06,6.27-1.38,8.15.8a6.48,6.48,0,0,1,1.29,2.52,2.25,2.25,0,0,0,.08.3,7.72,7.72,0,0,1,0,2.45c0,.38-.18.91-.22,1.32a15,15,0,0,1-2.61,6.75,7.56,7.56,0,0,1-1.12,1.36,3.54,3.54,0,0,1-.56.49c2,.11,7,.69,8.15-1.08l-.9-.79c-1-.9-.75-.67-1-2-.53-3.12.71-12.58,4.09-12.32a11.78,11.78,0,0,0,1.61-.12Z"/><path class="cls-14" d="M77.66,44.75a13.09,13.09,0,0,0-1.09,1.7c-2.42,4.56-1.13,9.45,2.11,14a.84.84,0,0,0,.15.19s0,0,.08,0a.62.62,0,0,0,.19-.08,3.4,3.4,0,0,1,1.65.07,1.44,1.44,0,0,1,.34.07h.07a0,0,0,0,0,0,0,4.17,4.17,0,0,1-1.1-1.24,5.55,5.55,0,0,1-.68-2.14,6.42,6.42,0,0,1,2.65-5.92,12.55,12.55,0,0,1-4.42-6.69Z"/><polygon class="cls-10" points="96.39 65.62 95.91 66.3 98.42 66.78 96.39 65.62"/><path class="cls-11" d="M96.43,65.74a1.48,1.48,0,0,1-.41.53l2,.37Zm-.6.53.52-.68,0,0,0,0,2,1.12.38.22-.49-.15-2.52-.44h-.08Z"/><path class="cls-11" d="M78.84,60.75a.07.07,0,0,1-.11,0,.83.83,0,0,0-.3-.07,1.46,1.46,0,0,0-.68-.15,1.83,1.83,0,0,0-.64,0,2.88,2.88,0,0,0-.41.11c-.11.08-.19.15-.34.26-.49.42-.94.83-1.42,1.25l.16,1.28a7.06,7.06,0,0,1,3.18-2.5,3.87,3.87,0,0,0,.56-.15Zm-.75-.33a4.27,4.27,0,0,1,.9.33l0,0-.07,0a5.28,5.28,0,0,1-.56.19,5.55,5.55,0,0,0-1.57.79,7.43,7.43,0,0,0-1.54,1.55l-.18.19,0,.07,0-.07-.19-1.43v0h0c.49-.38.94-.87,1.42-1.28.19-.12.26-.23.38-.27a2.28,2.28,0,0,1,.45-.11,4.1,4.1,0,0,1,1,0Z"/><path class="cls-15" d="M135,8.46a9.44,9.44,0,0,0-4.51-2c-2-.41-4.7-.29-6,1.41a4.69,4.69,0,0,0-.82,1.55,6.21,6.21,0,0,0-.26,2c.23,2.9,2.78,2.59,3.81,4.28a3.54,3.54,0,0,1-.22,1.58c-.23.72-.49,1.47-.56,1.77a4.61,4.61,0,0,0-.07,2.75c1.4,3.91,8.54,3.77,8.54,3.77-1.36-.41-3.73-2.43-3.92-4.13a1.89,1.89,0,0,1,.26-1.32c.75-1.21,3.86-2.8,5.17-4.46a3.68,3.68,0,0,0,.64-1.28,5.9,5.9,0,0,0-2-5.9Z"/><path class="cls-11" d="M134.92,8.53a11.27,11.27,0,0,0-2.11-1.31,10,10,0,0,0-2.33-.71,8.92,8.92,0,0,0-3.6,0,4,4,0,0,0-2.36,1.4,4,4,0,0,0-.49.68l-.34.79c-.08.34-.15.72-.22,1.05a3.93,3.93,0,0,0,0,.94,3.22,3.22,0,0,0,2.07,2.82,4.09,4.09,0,0,1,1.69,1.43h0a1,1,0,0,1,0,.68,4.89,4.89,0,0,1-.23,1c-.11.34-.22.72-.33,1.05s-.19.53-.23.68a6.12,6.12,0,0,0-.22,1.39h0a2.87,2.87,0,0,0,.19,1.35c.95,2.75,4.9,3.45,7,3.63.34,0,.64,0,.86,0a8,8,0,0,1-2.14-1.61,4.47,4.47,0,0,1-1.36-2.41,4.16,4.16,0,0,1,0-.72,3.32,3.32,0,0,1,.26-.64,9.91,9.91,0,0,1,2.36-2,16.71,16.71,0,0,0,2.81-2.46,3.54,3.54,0,0,0,.37-.6,2.88,2.88,0,0,0,.26-.6,5.66,5.66,0,0,0-.16-3.16,5.91,5.91,0,0,0-1.85-2.67Zm-2-1.5A10.61,10.61,0,0,1,135,8.38,6,6,0,0,1,137,11.13a5.75,5.75,0,0,1,.16,3.27,5.72,5.72,0,0,1-.26.68,5.81,5.81,0,0,1-.42.6,15.67,15.67,0,0,1-2.84,2.5,8.42,8.42,0,0,0-2.28,2,1.93,1.93,0,0,0-.27.56,3.58,3.58,0,0,0,0,.68,4.66,4.66,0,0,0,1.32,2.29,6.57,6.57,0,0,0,2.56,1.72h0l0,0s0,0-.07.08l0,.08-.07,0a.57.57,0,0,1-.26,0c-.26,0-.6,0-1,0-2.18-.18-6.2-.92-7.22-3.78a3.61,3.61,0,0,1-.19-1.39,6.2,6.2,0,0,1,.22-1.43c0-.15.15-.41.22-.72h0c.11-.3.22-.68.33-1a5.12,5.12,0,0,0,.22-1,.7.7,0,0,0,0-.57h0a4,4,0,0,0-1.62-1.35,3.43,3.43,0,0,1-2.15-2.93,4.81,4.81,0,0,1,0-1,10.31,10.31,0,0,1,.26-1.05,3.2,3.2,0,0,1,.33-.83,5,5,0,0,1,.49-.75,4.33,4.33,0,0,1,2.47-1.44,9.26,9.26,0,0,1,3.68,0,12.39,12.39,0,0,1,2.37.71Zm1.91,18.55Z"/><path class="cls-16" d="M128.7,12.58c.9.3,2,.07,2.81.63a1.82,1.82,0,0,1,.53.68,3.45,3.45,0,0,1-1,3.43c-1.2,1.4-2.92,2.15-2.09,4a5.35,5.35,0,0,0,3,2.89,5.25,5.25,0,0,1-1.59-2.74,2.83,2.83,0,0,1,.38-1.66,6.24,6.24,0,0,1,1.31-1.32c.6-.45,1.2-.87,1.8-1.32A10.89,10.89,0,0,0,136,15.34a3,3,0,0,0,.56-1.09,4.27,4.27,0,0,0,.19-1.17,5.66,5.66,0,0,0-2-4.21,9.11,9.11,0,0,0-4.29-1.94c-3.61-.55-5.24,4.8-1.71,5.65Z"/><path class="cls-17" d="M92.76,56.86c.64.11,1.32.07,2,.18a17.81,17.81,0,0,0-.13,6.63.85.85,0,0,0,.3.6c.38.41.94.79,1.47,1.35a2.2,2.2,0,0,1-.52.68c-.75.68-4.35.77-5.37.66l-2.25-.22.56-.53A14,14,0,0,0,92.05,60c.22-1.05.48-2.07.7-3.13Z"/><path class="cls-2" d="M115.34,38.87a20.54,20.54,0,0,0-12-5.42c1-3.2,2.87-7.61,6.17-9.28a9.1,9.1,0,0,1,5.82-.47c3.65,1.08,5.09,4.8,4.23,8.38-.59,2.52-2.2,4.34-4.18,6.79Z"/><path class="cls-2" d="M124,41.28c.22-2.52,0-5.16,1.51-7.42a5.69,5.69,0,0,1,5.06-2.69,6,6,0,0,1,4.4,2.66A9.4,9.4,0,0,1,136.11,38c.12,2.22-.55,3.69-1.59,6.29-3.46-1.91-6.73-3.4-10.56-3Z"/><path class="cls-18" d="M108.3,45a26,26,0,0,1-7.65-8.86,31.12,31.12,0,0,0,7.51,9.95c.15-.26,0-.83.15-1.09Z"/><path class="cls-18" d="M109.5,22.13c4.2-1.52,8-1.23,10.94,2.56-3-2.59-6.66-3.4-10.94-2.56Z"/><path class="cls-18" d="M128,29.68c4.24-1,7.36.24,9.71,4.41-2.79-3.68-5.5-4.72-9.71-4.41Z"/><path class="cls-3" d="M111.55,28.87a2.9,2.9,0,1,1-2.92,2.91,2.91,2.91,0,0,1,2.92-2.91Z"/><path class="cls-19" d="M111.55,28.49a3.41,3.41,0,0,1,2.33.93,3.32,3.32,0,0,1,1,2.33,3.17,3.17,0,0,1-1,2.3,3.3,3.3,0,0,1-4.69,0,3.14,3.14,0,0,1-.95-2.29,3.29,3.29,0,0,1,.93-2.34,3.42,3.42,0,0,1,2.36-.95ZM113.36,30a2.67,2.67,0,0,0-3.64,0,2.61,2.61,0,0,0-.75,1.81,2.57,2.57,0,0,0,5.14,0,2.63,2.63,0,0,0-.76-1.8Z"/><path class="cls-18" d="M125.56,50.88a16.13,16.13,0,0,0,7-.51,19.15,19.15,0,0,1-7.43,1c0-.19.34-.38.41-.53Z"/><path class="cls-2" d="M111.67,30.71a1.1,1.1,0,0,1,1.13,1.09,1.11,1.11,0,1,1-2.22,0,1.09,1.09,0,0,1,1.09-1.09Z"/><path class="cls-20" d="M111.6,30.9a.91.91,0,0,1,0,1.81.9.9,0,0,1,0-1.81Z"/><path class="cls-3" d="M130.65,35.26a3,3,0,1,1-3,3,3,3,0,0,1,3-3Z"/><path class="cls-2" d="M130.56,37a1.14,1.14,0,1,1-1.13,1.15A1.13,1.13,0,0,1,130.56,37Z"/><path class="cls-21" d="M130.66,37.4a.91.91,0,1,1-.9.91.91.91,0,0,1,.9-.91Z"/><path class="cls-18" d="M119.1,39.83c3.6-.65,4.37,2.39,2.08,3.42,1.16-1.85.55-3.16-2.08-3.42Z"/><path class="cls-18" d="M139,43c.23-.15.3-.26.41-.27,1.39,0-.67,1.92-2.74,1.89a4.74,4.74,0,0,0,3.49-1.29.79.79,0,0,0-.16-1.05c-.41-.19-.82.19-1,.72Z"/><path class="cls-18" d="M96.27,29.78c-.15-.41-.12-.87-.64-.86-1.05-.07-.71,2.83,1.25,4.51-1.13-.79-2.37-2.93-2.15-4.36.07-.6.37-1.09,1.12-1,.6.15.68,1,.42,1.69Z"/><path class="cls-22" d="M131,40.78c-.13,0-.27,0-.41,0a2.55,2.55,0,0,1-1.11-4.88,2.79,2.79,0,0,0-.9,2.06A2.85,2.85,0,0,0,131,40.78Z"/><path class="cls-3" d="M119.34,44.69A18.42,18.42,0,0,0,116,42.1c-1.65-.82-3.91-1.3-5.56-.21a5.24,5.24,0,0,0-2.24,4.18c-.1,2.37,2.08,5.11,4.26,5.79.9.34,1.66.6,2.37.78,1.84.52,5.49,1.15,7.33.65a7.56,7.56,0,0,0,3.71-2.76c1.42-2.11.17-4.56-2.46-5a29,29,0,0,0-3.53-.36c-.14-.15-.34-.3-.49-.49Z"/><path class="cls-11" d="M119.08,45l-.34-.3a16.07,16.07,0,0,0-3-2.21,7.55,7.55,0,0,0-2.89-.82,4,4,0,0,0-2.25.57,4.86,4.86,0,0,0-2.09,3.88h0a5.56,5.56,0,0,0,1.14,3.23,6,6,0,0,0,2.86,2.21h0c.49.19.9.3,1.28.45l1.05.33h0A26,26,0,0,0,119,53a8.31,8.31,0,0,0,3-.12,5.72,5.72,0,0,0,1.91-.95,7.29,7.29,0,0,0,1.57-1.66,2.6,2.6,0,0,0,.52-1.21,2.64,2.64,0,0,0-1.17-2.6,3.33,3.33,0,0,0-1.54-.6,11,11,0,0,0-1.62-.22c-.56-.07-1.2-.11-1.84-.14h-.15l-.12-.11-.49-.49Zm.15-.83.38.3h0l.42.41a12.78,12.78,0,0,1,1.73.11l1.65.22a4.51,4.51,0,0,1,1.84.71,3.65,3.65,0,0,1,1.24,1.5,3.15,3.15,0,0,1,.27,1.88,4.26,4.26,0,0,1-.64,1.51,8.16,8.16,0,0,1-1.79,1.81,6,6,0,0,1-2.14,1.06,9.5,9.5,0,0,1-3.19.16,26.29,26.29,0,0,1-4.32-.78h0c-.33-.11-.71-.22-1.13-.33s-.79-.3-1.24-.45h0a6.88,6.88,0,0,1-3.24-2.51A6,6,0,0,1,107.78,46h0a5.83,5.83,0,0,1,.67-2.52,5.42,5.42,0,0,1,1.76-1.93,4.34,4.34,0,0,1,2.7-.68,8.19,8.19,0,0,1,3.19.85,15.27,15.27,0,0,1,3.12,2.36Z"/><path class="cls-23" d="M117.8,43.45a5.12,5.12,0,0,0-2,6.33c.34.75.79,1.32.68,1.77-.33,1.21-.22,1.21-.18,1.39a18.27,18.27,0,0,0,4.85.44,6.07,6.07,0,0,0,4.57-2.88c1.49-2.19.13-4.44-2.35-4.89a24.38,24.38,0,0,0-3.57-.33,18.63,18.63,0,0,0-2-1.84Z"/><path class="cls-4" d="M122.28,46.37a9.41,9.41,0,0,1-1.76-.11,5.78,5.78,0,0,1-1-.45,17.25,17.25,0,0,1-2-1.5,6.52,6.52,0,0,0-3.09-1.91,9.39,9.39,0,0,0-2.4.12c-.56.08-.86.12-1,.16a14.47,14.47,0,0,1,2.51,0c1.81.26,2.18.6,3.54,1.83a5,5,0,0,0,1.62,1.16,5.19,5.19,0,0,0,3.57.7Z"/><path class="cls-2" d="M118.34,47.4c1.77.41,3,1.5,2.86,2.47s-1.84,1.48-3.64,1.07-3.08-1.49-2.86-2.48,1.84-1.44,3.64-1.07Z"/><path class="cls-11" d="M118.45,47.06a5,5,0,0,1,2.29,1.08h0a1.68,1.68,0,0,1-.66,3.13,5.45,5.45,0,0,1-2.59,0h0a5.55,5.55,0,0,1-2.37-1.12,1.9,1.9,0,0,1-.79-1.77h0v0a1.94,1.94,0,0,1,1.5-1.32,5.38,5.38,0,0,1,2.59,0l0,0Zm1.81,1.65a4.6,4.6,0,0,0-2-.94h0a4.25,4.25,0,0,0-2.18,0c-.53.15-.9.42-1,.76h0a1.21,1.21,0,0,0,.57,1.09,4.83,4.83,0,0,0,2,.94h0a4.41,4.41,0,0,0,2.22,0c.52-.15.9-.42,1-.76a1.23,1.23,0,0,0-.57-1.09Z"/><path class="cls-1" d="M118.46,48.68a4,4,0,0,1,0,8,4,4,0,0,1,0-8Zm0,2a2,2,0,0,1,2,2.06,2,2,0,1,1-4,0,2,2,0,0,1,2-2.08Z"/><path class="cls-11" d="M118.46,48.31a4.25,4.25,0,0,1,3,1.27,4.55,4.55,0,0,1,1.25,3.12,4.47,4.47,0,0,1-1.23,3.09,4.21,4.21,0,0,1-6,0,4.47,4.47,0,0,1-1.25-3.08,4.64,4.64,0,0,1,1.23-3.13,4.21,4.21,0,0,1,3-1.29Zm2.48,1.8a3.49,3.49,0,0,0-2.48-1A3.56,3.56,0,0,0,116,50.12a3.79,3.79,0,0,0,0,5.16,3.56,3.56,0,0,0,2.48,1A3.5,3.5,0,0,0,121,55.26a3.68,3.68,0,0,0,0-5.16Zm-2.48.16a2.27,2.27,0,0,1,1.69.71,2.41,2.41,0,0,1,0,3.43,2.27,2.27,0,0,1-1.69.72,2.38,2.38,0,0,1-1.69-.71,2.46,2.46,0,0,1-.68-1.69,2.49,2.49,0,0,1,.67-1.73,2.41,2.41,0,0,1,1.69-.72Zm1.17,1.24a1.53,1.53,0,0,0-1.16-.52,1.41,1.41,0,0,0-1.13.53,1.69,1.69,0,0,0-.49,1.21,1.81,1.81,0,0,0,.49,1.2,1.5,1.5,0,0,0,1.13.49,1.65,1.65,0,0,0,1.16-.49,1.83,1.83,0,0,0,.48-1.21,1.65,1.65,0,0,0-.49-1.2Z"/><path class="cls-2" d="M121.32,50c.57.64.83,1.24.64,1.43s-.79-.19-1.32-.79-.87-1.24-.68-1.43.79.19,1.35.79Z"/><path class="cls-11" d="M121.58,49.8a4,4,0,0,1,.68.94c.19.41.19.79,0,1s-.6.19-1,0h0A4.42,4.42,0,0,1,119.66,50c-.19-.41-.19-.79.07-1h0c.22-.23.56-.19,1,0a5.38,5.38,0,0,1,.87.79Zm0,1.17a5.63,5.63,0,0,0-.49-.67,3.86,3.86,0,0,0-.64-.56,3.27,3.27,0,0,0,.49.67,2.75,2.75,0,0,0,.64.56Zm.19.23s0,0,0,0,0,0,0,0Zm-1.51-1.65Z"/><path class="cls-24" d="M114.23,30.7a2.86,2.86,0,0,1-.93,3.24,2.82,2.82,0,0,1-3.35.12,3.28,3.28,0,0,0,3-.57,3.19,3.19,0,0,0,1.27-2.79Z"/><path class="cls-13" d="M97.24,51.09l1.45,5.15c.22.68.83,1.09,2,1,2.63-.08,4-.32,6.5.62a16.6,16.6,0,0,1,9.68,9.34c1.72-3.13,6.26-2.88,6.54.32l0,.72h0a6.88,6.88,0,0,0,.48-.94,3.09,3.09,0,0,0,0-2s0-.08-.08-.11h0a3.31,3.31,0,0,0-1.88-2s-.19-.08-.22-.08a3.79,3.79,0,0,0-1.73-.22,3.63,3.63,0,0,0-2.44,1.21c-.19.26-.34.53-.56.79,0-.3,0-.6-.08-.87a9.83,9.83,0,0,0-.54-2.75,3.56,3.56,0,0,0-.72-1.28l-.86-.75c-.19-.15-.38-.34-.61-.49a11.46,11.46,0,0,0-.68-3.72s0,0,0-.08a8.12,8.12,0,0,0-.38-.75c-.3-.6-.53-1.13-.79-1.58A13.64,13.64,0,0,0,110.58,51a11.26,11.26,0,0,0-2.37-1.31,5.46,5.46,0,0,0-2.89-.33,18.36,18.36,0,0,0-2.18.65,18.44,18.44,0,0,1-3.87.62,3.37,3.37,0,0,1-.86,0,1.82,1.82,0,0,0-1.16.49v-.08Z"/><path class="cls-11" d="M92,64.92a2.52,2.52,0,0,0,3.46,1.57l-.37.19A2.54,2.54,0,0,1,91.84,65Z"/><path class="cls-12" d="M103,58.52a3.17,3.17,0,0,0,1.32,1,2.63,2.63,0,0,0,1.32.18l.26,0,.12.23A18.39,18.39,0,0,0,108.1,63a12.7,12.7,0,0,0,3,2.51l-.37.64a14.29,14.29,0,0,1-3.24-2.66,20.41,20.41,0,0,1-2.08-3,3.35,3.35,0,0,1-1.47-.22,5.11,5.11,0,0,1-1.58-1.2Z"/><path class="cls-25" d="M120.7,69.12a8,8,0,0,0,.78-3.24h.26a7.53,7.53,0,0,1-.81,3.35Z"/><path class="cls-1" d="M54,26.54a8.27,8.27,0,0,1,7,1.56,11.28,11.28,0,0,0-12.54,2.83A8.48,8.48,0,0,1,54,26.54Z"/><path class="cls-1" d="M161.09,27.19A13.51,13.51,0,0,1,165,37.95a18.22,18.22,0,0,0-5.1-9.54,17.9,17.9,0,0,0-9.6-5,13.55,13.55,0,0,1,10.79,3.8Z"/><path class="cls-1" d="M78,79.88a4.41,4.41,0,0,1,1.38-2.26,3.87,3.87,0,0,1,4.69.1,4.73,4.73,0,0,1,1.17,1.43,3.22,3.22,0,0,0,.68.9s0,0,0,.08h.15a1.78,1.78,0,0,0,.45,0,5.7,5.7,0,0,0,.86-.57,5.74,5.74,0,0,1,1.09-.79c2.06-1.21,4-.09,5,1.87a11.42,11.42,0,0,1,1.29,4.7,9.93,9.93,0,0,1-2.3,7.16,8.19,8.19,0,0,1-2.62,1.89,14.91,14.91,0,0,1-7,1,2.13,2.13,0,0,1-1.77-1.24,2.38,2.38,0,0,1,1-2.64,35.41,35.41,0,0,0,3.11-2.65.13.13,0,0,1-.11,0A10.5,10.5,0,0,0,84,88.52a8.42,8.42,0,0,1-1.36-.22A6,6,0,0,1,79,85.6a10.09,10.09,0,0,1-.63,2.79c-.75,2-2.88,4.41-5,5a7.36,7.36,0,0,1-2.71.31c-2.33-.14-4.66-.32-7-.43a20.1,20.1,0,0,1-4.51-.51,3.23,3.23,0,0,1-1.09-.52c-1.88-1.46-1.7-4.59-1.75-6.7a25,25,0,0,0-1.64-8.12,8.17,8.17,0,0,1-.57-2.82,6.46,6.46,0,0,1,.37-2.67c1-2.79,4.12-3.82,6.82-4a14.42,14.42,0,0,1,4.58.44c2,.44,4,1.64,4.37,3.83a4.06,4.06,0,0,1-.78,3.05,16.89,16.89,0,0,1,2.48.26,8.35,8.35,0,0,1,6,4.34Zm105,1.38a24.49,24.49,0,0,0,1.95-2.53A10.55,10.55,0,0,1,186.57,77a4.25,4.25,0,0,1,5.48.13,10.58,10.58,0,0,1,2.87,3.45,25.35,25.35,0,0,1,1.85,4.25c.53,1.62,1.1,3.91.66,5.57A4.09,4.09,0,0,1,191,92.67a7.08,7.08,0,0,1-1.81-2.14,3.81,3.81,0,0,0-.9-1,.9.9,0,0,0-.45,0,.62.62,0,0,0-.26.19,3.74,3.74,0,0,0-.6.75,8.3,8.3,0,0,1-1.65,2,2.86,2.86,0,0,1-4-.55,6.28,6.28,0,0,1-1-1.77,3.48,3.48,0,0,0-.72-1.2s-.07-.07-.11-.07c-.27.08-.79.83-.9,1.06-.86,1.36-1.54,2.19-3.22,2.5a4,4,0,0,1-3.83-1.27,5.43,5.43,0,0,1-1.07-4.7q.16-1.19.44-2.37c.6-2.15,2.2-6.07,3.85-7.58a4.64,4.64,0,0,1,2.32-1.21,4.4,4.4,0,0,1,5.27,3.48c.12.49.2,1,.31,1.47.08.26.12.53.19.79,0,.08.07.19.11.26ZM23.67,73.06a17.52,17.52,0,0,1,7,1.56C35.81,77,37.1,81.41,35.06,86.5c-2.35,5.77-6.66,7.36-12.56,7.42-1.35,0-2.67,0-4,0s-2.37-.11-3.57-.25A12.84,12.84,0,0,1,12.06,93,6.38,6.38,0,0,1,9.34,91c-1-1.47-.72-3.42-.32-5.08a16.77,16.77,0,0,0,.63-4.1,11.92,11.92,0,0,0-.84-4.29c-.23-.64-.53-1.32-.79-2a11.62,11.62,0,0,1-1.14-5.15,5.81,5.81,0,0,1,1.79-4.07,5.67,5.67,0,0,1,.9-.72c2.29-1.44,5.48-1.45,8-.85.41.11.82.22,1.28.37a7.71,7.71,0,0,1,4.78,3.6,5.05,5.05,0,0,1,0,4.29ZM35.4,89.58c0-2.71,2.3-8.44,3.95-10.59a7.32,7.32,0,0,1,9-2.48,11.07,11.07,0,0,1,5.92,6,11.8,11.8,0,0,1,.76,4.1,14.54,14.54,0,0,1-.32,4.07,3,3,0,0,1-2.2,2.45,2.49,2.49,0,0,1-2.15-.55c-1.13-.86-1.89-2.14-3.2-2.74-.72-.3-1.09,0-1.57.53a7.83,7.83,0,0,1-3.07,2.57,7.31,7.31,0,0,1-1.61.49,5,5,0,0,1-4.25-.89,3.65,3.65,0,0,1-1.25-2.93Zm70.09-8.37L104,83a6.61,6.61,0,0,1-2.1,1.55,5.91,5.91,0,0,1-2.78.54,3.74,3.74,0,0,1-3-1.57,2.5,2.5,0,0,1,1.19-3.7,3.83,3.83,0,0,1,1.58-.23,11.53,11.53,0,0,1,3.16.55c.38.11.75.22,1.16.37.19.08.41.11.64.19ZM119.15,76a12.34,12.34,0,0,1,2.33.22,7.77,7.77,0,0,1,6.29,5.85,11.34,11.34,0,0,1-.28,6.4c-.71,1.92-2.69,4.23-4.72,4.8a6.19,6.19,0,0,1-2,.35,17.34,17.34,0,0,1-2-.22c-.64-.07-1.28-.15-1.92-.18-2-.11-4.09-.14-6.12-.32a7.65,7.65,0,0,1-1.28-.22,3.14,3.14,0,0,1-1-.48c-1.81-1.39-1.63-4.4-1.67-6.43a23.54,23.54,0,0,0-.27-2.82,24.25,24.25,0,0,0-.57-2.78c-.19-.75-.49-1.47-.72-2.18a8.4,8.4,0,0,1-.54-2.56c0-2.52.81-4.41,3.17-5.47,2.85-1.33,7.77-1.31,10.37.6a3.93,3.93,0,0,1,1.62,2.63,4.49,4.49,0,0,1-.67,2.82Zm19.74-2.51a10.18,10.18,0,1,1-10.26,10.24,10.25,10.25,0,0,1,10.26-10.24Zm20.88-.07A10.18,10.18,0,1,1,149.52,83.7a10.25,10.25,0,0,1,10.25-10.24Z"/><path class="cls-1" d="M23.21,70.57a17.16,17.16,0,0,1,6.43,1.56c5.42,2.54,6.9,7.32,4.66,12.71-2.42,6-6.92,7.78-13.12,7.84-1.35,0-2.67,0-4,0s-2.4-.1-3.6-.25a12,12,0,0,1-3-.74,6.33,6.33,0,0,1-3-2.14c-1.17-1.65-.92-3.76-.43-5.61a17.49,17.49,0,0,0,.59-4,11.1,11.1,0,0,0-.8-4.1c-.23-.64-.49-1.28-.76-1.92a12.42,12.42,0,0,1-1.22-5.45,6.5,6.5,0,0,1,2-4.49c2.43-2.3,6.42-2.47,9.54-1.73a8.86,8.86,0,0,1,1.32.37c2.07.67,4.21,1.91,5.19,3.9a5.55,5.55,0,0,1,.28,4Z"/><path class="cls-2" d="M21.9,71.44A17.09,17.09,0,0,1,29.26,73c5,2.32,6.22,6.57,4.17,11.51-2.31,5.66-6.47,7.21-12.26,7.27-1.32,0-2.67,0-4-.06s-2.37-.11-3.53-.25a12.12,12.12,0,0,1-2.82-.63A5.48,5.48,0,0,1,8.28,89c-1-1.42-.69-3.31-.28-4.86A17.55,17.55,0,0,0,8.63,80a11.88,11.88,0,0,0-.84-4.4c-.26-.68-.53-1.32-.79-2a11.36,11.36,0,0,1-1.14-5,5.52,5.52,0,0,1,1.68-3.88c2.21-2.08,5.89-2.16,8.67-1.5a7.75,7.75,0,0,1,1.24.33A7.72,7.72,0,0,1,22.07,67a4.91,4.91,0,0,1-.14,4.4.14.14,0,0,0,0,.08Z"/><path class="cls-18" d="M8.58,75.25A13.92,13.92,0,0,1,9.49,80a17.35,17.35,0,0,1-.66,4.41C7.91,87.9,8.81,89,11.18,90c2,.82,6.8.92,10,.87,5.45-.05,9.31-1.42,11.51-6.74,1.86-4.64.69-8.32-3.79-10.42-2.71-1.27-4.92-1.45-8.16-1.44h-.3c.34-.6.56-1,.71-1.28,1.9-4-1.71-6.24-5.13-7-4.13-1-9.09,0-9.34,4.59-.11,2.37,1,4.51,1.9,6.66Z"/><path class="cls-1" d="M33.44,87.71c0-2.86,2.34-8.74,4.06-11A8,8,0,0,1,47.3,74a11.92,11.92,0,0,1,6.25,6.3,13.16,13.16,0,0,1,.8,4.36A15.82,15.82,0,0,1,54,88.92a3.79,3.79,0,0,1-2.7,2.94,3.36,3.36,0,0,1-2.67-.67,16.76,16.76,0,0,1-1.85-1.8,4.86,4.86,0,0,0-1.24-.86c-.07,0-.26-.11-.34-.08s-.37.3-.48.42a7.77,7.77,0,0,1-3.3,2.72,7.34,7.34,0,0,1-1.76.57,5.8,5.8,0,0,1-4.77-1,4.38,4.38,0,0,1-1.48-3.46Z"/><path class="cls-2" d="M34.38,87.7c0-2.63,2.26-8.33,3.87-10.4a7,7,0,0,1,8.67-2.4,10.65,10.65,0,0,1,5.73,5.78,11.6,11.6,0,0,1,.76,4.06,15.35,15.35,0,0,1-.28,4,2.84,2.84,0,0,1-2,2.26,2.31,2.31,0,0,1-1.88-.52C48,89.54,47.38,88.3,46,87.66a1.48,1.48,0,0,0-2,.61,6.71,6.71,0,0,1-4.5,3c-2.63.5-5.19-.55-5.16-3.52Z"/><path class="cls-26" d="M35.21,87.7c0,3.09,3.35,3.23,5.53,2.28a6.56,6.56,0,0,0,2.62-2.23,2.26,2.26,0,0,1,3-.84c1.66.71,2.19,1.91,3.43,2.85a1.42,1.42,0,0,0,1.17.37c.83-.19,1.16-.91,1.38-1.66a15.57,15.57,0,0,0,.25-3.73A10.55,10.55,0,0,0,51.86,81a9.77,9.77,0,0,0-5.28-5.33,6.14,6.14,0,0,0-7.65,2.1c-1.53,2-3.69,7.58-3.72,9.91Z"/><path class="cls-2" d="M46.94,80.1a1.93,1.93,0,0,1-.52,1.47,2.92,2.92,0,0,1-3.38.61,1.88,1.88,0,0,1-1-1.73,2.13,2.13,0,0,1,1-2,2.79,2.79,0,0,1,3.46.52,1.88,1.88,0,0,1,.45,1.09Z"/><path class="cls-1" d="M69.22,72.79,70.8,73A8.8,8.8,0,0,1,78,79.65a12.26,12.26,0,0,1-.31,7.08c-.82,2.19-3.1,4.75-5.39,5.44a8.65,8.65,0,0,1-2.93.31c-2.33-.14-4.66-.32-7-.39a21.41,21.41,0,0,1-4.66-.58,3.57,3.57,0,0,1-1.32-.63c-2.07-1.61-1.93-4.81-2-7.18a24.11,24.11,0,0,0-1.6-7.94,8.45,8.45,0,0,1-.61-3,7.9,7.9,0,0,1,.4-2.94c1.08-3,4.42-4.19,7.35-4.39a15.94,15.94,0,0,1,4.81.44c2.25.52,4.48,1.9,4.86,4.39a4.26,4.26,0,0,1-.37,2.56Z"/><path class="cls-2" d="M67.61,73.66a13.82,13.82,0,0,1,3,.29,7.89,7.89,0,0,1,6.44,5.89,11.43,11.43,0,0,1-.28,6.55C76,88.32,74,90.7,72,91.27a6.79,6.79,0,0,1-2.59.31c-2.37-.18-4.7-.36-7-.43a19.54,19.54,0,0,1-4.43-.51,2.67,2.67,0,0,1-1-.49c-1.77-1.39-1.59-4.47-1.64-6.51a24.93,24.93,0,0,0-1.68-8.24,7.37,7.37,0,0,1-.54-2.71,6.62,6.62,0,0,1,.33-2.56c.93-2.64,4-3.63,6.56-3.79a15.21,15.21,0,0,1,4.51.4c1.88.45,3.83,1.57,4.14,3.6a4.18,4.18,0,0,1-1,3.32Z"/><path class="cls-27" d="M54.23,70.39a7.19,7.19,0,0,0-.29,2.3,8.51,8.51,0,0,0,.5,2.44,25.17,25.17,0,0,1,1.72,8.5c0,1.66-.17,5.57,2,6.17a19.46,19.46,0,0,0,4.28.48c2.48.1,4.62.25,7,.43a6,6,0,0,0,2.33-.27A7.85,7.85,0,0,0,76,86.1a10.25,10.25,0,0,0,.24-6,7,7,0,0,0-5.8-5.29,15.38,15.38,0,0,0-3.23-.25H65.43a3.66,3.66,0,0,1,.34-.38c3.15-2.19,2.76-5.58-1.45-6.58a15,15,0,0,0-4.28-.4c-2.18.16-5,1-5.81,3.22Z"/><path class="cls-2" d="M61.93,69.92a1.84,1.84,0,0,1-.67,2.52,1.86,1.86,0,0,1-2.59-.07,1.9,1.9,0,0,1,.63-2.56,1.87,1.87,0,0,1,2.63.1Z"/><path class="cls-2" d="M65.9,79.2c2,0,3.61,1.31,3.62,2.89S67.91,85,65.92,85s-3.61-1.27-3.61-2.89,1.6-2.9,3.6-2.91Z"/><path class="cls-1" d="M82.57,87.28c-.45-.07-.94-.15-1.39-.26A6.85,6.85,0,0,1,76.54,83a8.35,8.35,0,0,1-.69-2.86,5.78,5.78,0,0,1,1.79-4.86,4.45,4.45,0,0,1,5.49.06,5.1,5.1,0,0,1,1.36,1.61,3.29,3.29,0,0,0,.42.68l.15,0a6.63,6.63,0,0,0,.64-.45,8.15,8.15,0,0,1,1.16-.83c2.4-1.4,4.77-.17,5.94,2.13a12.52,12.52,0,0,1,1.37,5A10.39,10.39,0,0,1,91.67,91a9.59,9.59,0,0,1-2.81,2.08,15.42,15.42,0,0,1-7.36,1,2.78,2.78,0,0,1-2.29-1.61,3,3,0,0,1,1.15-3.39c.67-.6,1.5-1.17,2.21-1.78Z"/><path class="cls-2" d="M84.29,86.82a2.26,2.26,0,0,0-.41-.22,6.72,6.72,0,0,0-1.17-.26,7.57,7.57,0,0,1-1.28-.22,5.92,5.92,0,0,1-4-3.52,8.27,8.27,0,0,1-.65-2.52A5.16,5.16,0,0,1,78.25,76a3.54,3.54,0,0,1,4.32.1,4.09,4.09,0,0,1,1.09,1.31,3.43,3.43,0,0,0,.76,1s.07.08.12.11h.26a2.24,2.24,0,0,0,.53,0,4,4,0,0,0,1-.64,10.26,10.26,0,0,1,1-.76C89.25,76,91,77,92,78.81a11,11,0,0,1,1.26,4.59,9.53,9.53,0,0,1-2.23,7,8.77,8.77,0,0,1-2.55,1.82,14.57,14.57,0,0,1-6.83,1,1.91,1.91,0,0,1-1.54-1A2.21,2.21,0,0,1,81,89.77,32.62,32.62,0,0,0,84.22,87a.14.14,0,0,0,0-.08s0,0,0-.08Z"/><path class="cls-3" d="M91.21,79.23c-.68-1.35-2-2.29-3.46-1.42a14.32,14.32,0,0,1-2.17,1.44,3,3,0,0,1-.83.11,1.06,1.06,0,0,1-.9-.33c-.83-.68-.91-1.62-1.81-2.29a2.65,2.65,0,0,0-3.27-.1A4.21,4.21,0,0,0,77.62,80a6.23,6.23,0,0,0,.57,2.22,4.94,4.94,0,0,0,3.46,3c.83.26,1.73.22,2.52.52s1.24.71.83,1.47a1.8,1.8,0,0,1-.15.26,32.18,32.18,0,0,1-3.33,2.87c-1.09.95-.86,1.74.23,1.88a13.55,13.55,0,0,0,6.35-.85,7.62,7.62,0,0,0,2.24-1.62c2.54-2.87,2.57-7.35.86-10.58Z"/><path class="cls-1" d="M105.26,79l-2.17,2.49a6.87,6.87,0,0,1-5.36,2.32A4.43,4.43,0,0,1,94.27,82a3.28,3.28,0,0,1-.49-1.28,3,3,0,0,1,2-3.39,5.05,5.05,0,0,1,1.8-.31,14.05,14.05,0,0,1,3.31.59c.41.11.79.26,1.2.37l.64.23Z"/><path class="cls-2" d="M103.65,79.45l-1.23,1.4a5.93,5.93,0,0,1-4.65,2,3.48,3.48,0,0,1-2.71-1.42,1.86,1.86,0,0,1-.34-.9,2.12,2.12,0,0,1,1.38-2.38,4.64,4.64,0,0,1,1.47-.23,14.09,14.09,0,0,1,3,.56,10.35,10.35,0,0,1,1.16.37l.64.22Z"/><path class="cls-26" d="M102.15,79.87l-.64-.22c-.37-.11-.75-.26-1.13-.34a12.3,12.3,0,0,0-2.85-.52,4.29,4.29,0,0,0-1.17.15,1.3,1.3,0,0,0-.82,1.47,1.09,1.09,0,0,0,.23.53A2.59,2.59,0,0,0,97.83,82a5.23,5.23,0,0,0,3.94-1.71Z"/><path class="cls-1" d="M118.81,73.57c.49,0,1,.11,1.46.18A8.36,8.36,0,0,1,127,80.09a11.89,11.89,0,0,1-.28,6.78c-.78,2.11-3,4.56-5.12,5.21a8.69,8.69,0,0,1-4.28.13c-.64-.07-1.24-.15-1.88-.18-2.07-.07-4.1-.14-6.16-.32a9.14,9.14,0,0,1-1.39-.22,4,4,0,0,1-1.2-.6c-2-1.58-1.89-4.62-2-6.92a24.4,24.4,0,0,0-.77-5.49c-.19-.71-.49-1.43-.76-2.14a9.8,9.8,0,0,1-.54-2.75c0-2.78.92-4.9,3.51-6.11,3.12-1.4,8.26-1.38,11,.68a4.58,4.58,0,0,1,1.56,5.42Z"/><path class="cls-2" d="M117.23,74.44a12,12,0,0,1,2.86.25,7.43,7.43,0,0,1,6.06,5.63,10.61,10.61,0,0,1-.28,6.21c-.67,1.85-2.58,4.11-4.49,4.65a8.1,8.1,0,0,1-3.91.13c-.64-.07-1.28-.15-2-.18-2-.11-4.06-.18-6.09-.36a6.66,6.66,0,0,1-1.24-.18,3.37,3.37,0,0,1-.9-.45c-1.69-1.31-1.56-4.29-1.6-6.21a26.32,26.32,0,0,0-.81-5.68c-.19-.75-.53-1.47-.76-2.22a9.25,9.25,0,0,1-.5-2.48c0-2.37.7-4.18,3-5.2,2.78-1.25,7.54-1.27,10.07.57a3.7,3.7,0,0,1,.54,5.53Z"/><path class="cls-28" d="M107,69.09c-2,.91-2.51,2.38-2.47,4.45,0,1.69.8,2.9,1.22,4.47a30.73,30.73,0,0,1,.85,5.91c0,1.58-.17,5.27,1.86,5.83a7.34,7.34,0,0,0,1.09.18c2,.18,4.06.21,6.08.32a16,16,0,0,1,2,.22,6.78,6.78,0,0,0,3.57-.12,7.3,7.3,0,0,0,3.93-4.12,9.86,9.86,0,0,0,.24-5.72,6.59,6.59,0,0,0-5.42-5,13.27,13.27,0,0,0-3-.25c-.56,0-1.09,0-1.65,0a3.9,3.9,0,0,1,.38-.38c.3-.3.6-.57.86-.87a2.89,2.89,0,0,0-.28-4.44c-2.3-1.65-6.77-1.6-9.24-.5Z"/><path class="cls-2" d="M112,70.88a1.84,1.84,0,0,1-.63,2.45,1.78,1.78,0,0,1-2.52-.11,1.8,1.8,0,0,1,.63-2.41,1.78,1.78,0,0,1,2.52.07Z"/><path class="cls-2" d="M115.67,79.68c1.88,0,3.39,1.23,3.39,2.77s-1.5,2.79-3.37,2.8-3.42-1.23-3.43-2.77,1.53-2.79,3.41-2.8Z"/><path class="cls-1" d="M137.54,71a10.84,10.84,0,1,1-10.9,10.88A10.91,10.91,0,0,1,137.54,71Z"/><path class="cls-2" d="M137.54,72a9.9,9.9,0,1,1-10,9.94,9.93,9.93,0,0,1,10-9.94Z"/><path class="cls-27" d="M137.54,72.79a9.05,9.05,0,1,1-9.09,9.1,9.12,9.12,0,0,1,9.09-9.1Z"/><path class="cls-2" d="M137,77.12a3.12,3.12,0,1,1-3.11,3.14A3.14,3.14,0,0,1,137,77.12Z"/><path class="cls-1" d="M158.45,70.95a10.84,10.84,0,1,1-10.93,10.88,10.9,10.9,0,0,1,10.93-10.88Z"/><path class="cls-2" d="M158.46,71.89a9.9,9.9,0,1,1-10,9.94,9.92,9.92,0,0,1,10-9.94Z"/><path class="cls-26" d="M158.46,72.72a9.05,9.05,0,1,1-9.13,9.1,9.11,9.11,0,0,1,9.13-9.1Z"/><path class="cls-2" d="M157.87,77a3.13,3.13,0,1,1,0,6.25,3.13,3.13,0,0,1,0-6.25Z"/><path class="cls-2" d="M11.86,68.09a2.54,2.54,0,0,1,3.49-1.4A1.7,1.7,0,0,1,16,69.06a2.65,2.65,0,0,1-2,1.25,2.11,2.11,0,0,1-2.07-1,1.65,1.65,0,0,1-.12-1.21Z"/><path class="cls-1" d="M12.46,68.28a1.05,1.05,0,0,0,.08.75,1.55,1.55,0,0,0,1.46.64,2.11,2.11,0,0,0,1.46-.91,1.09,1.09,0,0,0-.38-1.51,1.94,1.94,0,0,0-2.63,1Z"/><path class="cls-2" d="M17.64,78.12a6.2,6.2,0,0,1,5-1,3.79,3.79,0,0,1,3.28,2.7,3.7,3.7,0,0,1-.67,3.05,4.56,4.56,0,0,1-2.7,1.51,7.45,7.45,0,0,1-3.94-.55A3.86,3.86,0,0,1,16.48,81a3.05,3.05,0,0,1,1.15-2.86Z"/><path class="cls-1" d="M18.09,78.72a2.2,2.2,0,0,0-.82,2.18A3,3,0,0,0,19,83.12a6.67,6.67,0,0,0,3.46.48,3.71,3.71,0,0,0,2.21-1.29A2.72,2.72,0,0,0,25.16,80a3.07,3.07,0,0,0-2.64-2.14,5.52,5.52,0,0,0-4.43.88Z"/><path class="cls-1" d="M46.3,80.13a1.32,1.32,0,0,1-.38,1,2.23,2.23,0,0,1-2.59.46,1.27,1.27,0,0,1-.68-1.17A1.53,1.53,0,0,1,43.37,79a2.16,2.16,0,0,1,2.63.4,1,1,0,0,1,.3.71Z"/><path class="cls-1" d="M61.4,70.3c-.3-.45-1.09-.41-1.69,0A1.06,1.06,0,1,0,60.88,72c.64-.49.86-1.21.52-1.66Z"/><path class="cls-1" d="M65.9,79.84c1.62,0,3,1,3,2.25s-1.34,2.26-3,2.27-3-1-3-2.25,1.31-2.26,3-2.27Z"/><path class="cls-1" d="M111.47,71.26c-.3-.41-1-.41-1.61,0s-.78,1.13-.48,1.54,1,.41,1.62,0a1.2,1.2,0,0,0,.48-1.54Z"/><path class="cls-1" d="M115.67,80.32c1.5,0,2.75,1,2.75,2.14a2.49,2.49,0,0,1-2.74,2.16c-1.54,0-2.78-.93-2.79-2.14s1.23-2.15,2.77-2.16Z"/><path class="cls-1" d="M137,77.76a2.48,2.48,0,1,1-2.48,2.49A2.51,2.51,0,0,1,137,77.76Z"/><path class="cls-1" d="M157.88,77.69a2.48,2.48,0,1,1,0,5,2.48,2.48,0,0,1,0-5Z"/><path class="cls-1" d="M181.91,78.06c.41-.57.79-1.13,1.16-1.62a10.09,10.09,0,0,1,1.76-1.85,4.83,4.83,0,0,1,6.27.09,10.56,10.56,0,0,1,3,3.68A25.37,25.37,0,0,1,196,82.72c.57,1.77,1.14,4.14.62,5.95a4.68,4.68,0,0,1-7.43,2.62,8.11,8.11,0,0,1-2-2.25,3.91,3.91,0,0,0-.6-.75s0,0,0,0a2.66,2.66,0,0,0-.52.64,10.43,10.43,0,0,1-1.76,2.11,3.5,3.5,0,0,1-4.85-.66,6.06,6.06,0,0,1-1.09-1.92c-.07-.15-.19-.41-.3-.64a3.5,3.5,0,0,0-.3.49c-1,1.55-1.8,2.45-3.67,2.8a4.85,4.85,0,0,1-4.44-1.45,6.43,6.43,0,0,1-1.22-5.23A19.32,19.32,0,0,1,169,82c.59-2.26,2.27-6.26,4-7.88a5.43,5.43,0,0,1,2.63-1.4,5.09,5.09,0,0,1,6,4c.11.45.19.9.27,1.35Z"/><path class="cls-2" d="M181.51,79.83a.36.36,0,0,0,.19-.15A17,17,0,0,0,183.83,77a9.39,9.39,0,0,1,1.57-1.7,4,4,0,0,1,5.14.13,10.65,10.65,0,0,1,2.79,3.38A24.36,24.36,0,0,1,195.15,83c.53,1.58,1.1,3.8.62,5.42a3.75,3.75,0,0,1-6,2.17,7.61,7.61,0,0,1-1.74-2.06,4.56,4.56,0,0,0-1-1.09,1.06,1.06,0,0,0-.75,0,1.22,1.22,0,0,0-.34.26,7.35,7.35,0,0,0-.67.76,7.84,7.84,0,0,1-1.53,2,2.61,2.61,0,0,1-3.57-.55,5.81,5.81,0,0,1-.94-1.69,3.75,3.75,0,0,0-.83-1.31.67.67,0,0,0-.34-.15c-.41.08-.89.87-1.12,1.21-.78,1.28-1.42,2.08-3,2.34a3.82,3.82,0,0,1-3.57-1.12,5.42,5.42,0,0,1-1-4.51,16.34,16.34,0,0,1,.48-2.34c.56-2.11,2.16-6,3.73-7.47a4.33,4.33,0,0,1,2.18-1.14,4.12,4.12,0,0,1,4.93,3.3,15.53,15.53,0,0,0,.76,2.9Z"/><path class="cls-18" d="M182.3,80.32a1.53,1.53,0,0,1-.52.34c-1.28.42-1.43-1.84-1.86-3.53A3.26,3.26,0,0,0,176,74.46a3.61,3.61,0,0,0-1.8.95c-1.42,1.32-3,5.13-3.5,7.05a21,21,0,0,0-.44,2.22,4.65,4.65,0,0,0,.8,3.84,3,3,0,0,0,2.78.86,3.18,3.18,0,0,0,2.43-2c.56-.91,1.54-2.19,2.7-1.29.94.75,1.1,2.22,1.89,3.12a1.71,1.71,0,0,0,2.4.44c1-.79,1.42-2.3,2.62-3a1.7,1.7,0,0,1,1.69.07c1.24.86,1.44,2.18,2.72,3.15A2.94,2.94,0,0,0,195,88.18c.63-2.3-1.22-6.85-2.4-9A9.05,9.05,0,0,0,190,76.11a3.09,3.09,0,0,0-4.09-.14c-1.5,1.21-2.36,3.21-3.63,4.34Z"/><path class="cls-2" d="M24.26,81.71a2.13,2.13,0,0,1-1.46,1.36,2.19,2.19,0,0,1-2-.26c0-.34,2.55-1.55,3.49-1.1Z"/><path class="cls-2" d="M68,82.7a1.64,1.64,0,0,1-1.08,1,1.69,1.69,0,0,1-1.5-.18A3.2,3.2,0,0,1,68,82.7Z"/><path class="cls-2" d="M117.74,83.13a1.5,1.5,0,0,1-1.09,1,1.58,1.58,0,0,1-1.5-.19,3.22,3.22,0,0,1,2.59-.84Z"/><path class="cls-2" d="M138.59,81.29a1.08,1.08,0,0,1-.79.76,1.19,1.19,0,0,1-1.09-.15,2.41,2.41,0,0,1,1.88-.61Z"/><path class="cls-2" d="M159.5,81.22a1.08,1.08,0,0,1-.79.75,1.19,1.19,0,0,1-1.09-.15,2.41,2.41,0,0,1,1.88-.61Z"/></g></g></svg>