<?xml version="1.0" encoding="utf-8"?>
<!-- Generator: Adobe Illustrator 22.1.0, SVG Export Plug-In . SVG Version: 6.00 Build 0)  -->
<svg version="1.1" id="Слой_1" xmlns="http://www.w3.org/2000/svg" xmlns:xlink="http://www.w3.org/1999/xlink" x="0px" y="0px"
	 viewBox="0 0 176.1 96.5" style="enable-background:new 0 0 176.1 96.5;" xml:space="preserve">
<style type="text/css">
	.st0{fill:#FFFFFF;}
</style>
<title>logo</title>
<g id="Слой_2_1_">
	<g id="Слой_1-2">
		<path class="st0" d="M3.6,78.9H0V59.7h3.6v8.5h7.9v-8.5h3.6v19.3h-3.6v-9.3H3.6V78.9L3.6,78.9z M31,78.9H19.4V59.7h11.4v1.2h-7.8
			v7.5h7.3v1.3h-7.3v8.1h7.9L31,78.9L31,78.9z M35.8,78.9h-1.6V59.7h3.2l10.1,13.3l0.1-13.3h1.5v19.3h-1.6L35.9,63.5L35.8,78.9
			L35.8,78.9z M57.1,60.9v16.8h2.3c2.6,0,4.5-0.9,5.7-2.6c1-1.6,1.4-3.5,1.3-5.4c0.1-2.2-0.5-4.4-1.7-6.2c-1.2-1.7-3.1-2.7-5.1-2.6
			L57.1,60.9z M53.4,78.9V59.7h6.3c2.9-0.1,5.7,1,7.7,3.1c1.7,1.9,2.6,4.4,2.5,6.9c0.2,2.6-0.8,5.1-2.7,6.9
			c-1.9,1.6-4.4,2.5-6.9,2.3L53.4,78.9z M76.4,78.9h-3.7V59.7h8.1c1.5-0.1,3,0.5,4.1,1.5c1,1,1.6,2.4,1.6,3.9
			c0.1,1.3-0.4,2.5-1.4,3.4c-1,0.9-2.3,1.4-3.7,1.5l5.1,9h-4L77.4,69h0.3c1.3,0.1,2.7-0.2,3.8-0.9c1-0.7,1.5-1.9,1.4-3.1
			c0-1-0.3-2.1-1-2.8c-1-0.9-2.3-1.4-3.6-1.3h-2L76.4,78.9L76.4,78.9z M93.2,78.9h-3.6V59.7h3.6L93.2,78.9L93.2,78.9z M102.1,69.8
			l-6.5-10.1h4.3l4.6,6.9l4.9-6.9h2.1l-6,8.4l7.1,10.9h-4.5l-4.9-7.6l-5.5,7.6h-2L102.1,69.8L102.1,69.8z M125.9,60.9v7.4h2.5
			c0.9,0.1,1.9-0.2,2.6-0.8c0.8-0.7,1.2-1.7,1.2-2.8c0.1-0.9-0.2-1.8-0.8-2.6c-1-0.9-2.3-1.4-3.7-1.3L125.9,60.9z M125.9,69.5v8.2
			h2.9c1.3,0.1,2.5-0.3,3.4-1.3c0.6-0.8,0.8-1.7,0.8-2.7c0-1-0.3-1.9-0.8-2.7c-0.7-1-1.9-1.6-3.2-1.6L125.9,69.5z M122.2,78.9V59.7
			h8c1.7-0.1,3.3,0.5,4.4,1.8c0.7,0.9,1.1,2,1.1,3.1c0,1-0.3,2-0.9,2.8c-0.6,0.8-1.5,1.3-2.4,1.5c1.2,0.2,2.2,0.8,3,1.7
			c0.7,0.9,1.1,2,1.1,3.1c0.1,1.4-0.4,2.7-1.4,3.7c-1.3,1.1-3,1.7-4.7,1.6L122.2,78.9z M147.4,72.6l-2.8-7.1l-2.8,7.1H147.4z
			 M153.7,78.9H150l-2-5.1h-6.7l-1.9,5.1h-1.7l7.9-19.8L153.7,78.9L153.7,78.9z M160,78.9h-3.6V59.7h3.6L160,78.9L160,78.9z
			 M176.1,78.9h-11.4V59.7h3.6v17.8h7.7L176.1,78.9L176.1,78.9z"/>
		<polygon class="st0" points="71.2,38.9 63.8,38.9 63.8,0 71.2,0 71.2,17.1 87.2,17.1 87.2,0 94.5,0 94.5,38.9 87.2,38.9 
			87.2,20.1 71.2,20.1 71.2,38.9 		"/>
		<path class="st0" d="M87,46c25.4,0,46-2.4,46-1.8s-20.6,4.7-46,4.7s-46-4.1-46-4.7S61.7,46,87,46z"/>
		<path class="st0" d="M87,50.3c22.7,0,41.2-2.1,41.2-1.6s-18.4,4.2-41.2,4.2s-41.2-3.7-41.2-4.2S64.3,50.3,87,50.3z"/>
		<path class="st0" d="M43.8,95l0.7-0.5c0.2,0.4,0.5,0.7,0.9,1c0.3,0.2,0.8,0.3,1.2,0.3c0.5,0,0.9-0.2,1.2-0.5
			c0.4-0.3,0.6-0.8,0.6-1.3c0-0.8-0.5-1.5-1.2-1.8l-2.2-1c-0.8-0.5-1.3-1.3-1.2-2.3c0-0.8,0.3-1.5,0.9-2.1c0.6-0.6,1.5-0.9,2.3-0.8
			c0.6,0,1.2,0.2,1.8,0.5c0.5,0.3,1,0.7,1.2,1.3l-0.7,0.4c-0.2-0.4-0.4-0.7-0.8-1c-0.4-0.3-0.8-0.4-1.3-0.4c-0.4,0-0.9,0.2-1.2,0.5
			c-0.3,0.3-0.5,0.8-0.4,1.2c0,0.6,0.4,1.1,1.2,1.5l2.3,1.1c0.8,0.5,1.3,1.4,1.2,2.4c0,0.8-0.4,1.6-1,2.2c-0.6,0.6-1.4,0.9-2.3,0.9
			c-0.6,0-1.3-0.1-1.8-0.4C44.5,95.9,44.1,95.5,43.8,95z M56,93l-1.5-3.6L53,93H56z M59.2,96.3h-2l-1-2.6h-3.4l-1,2.6h-0.9L55,86
			L59.2,96.3L59.2,96.3z M66.5,96.3h-5.9v-9.9h1.9v9.2h4L66.5,96.3L66.5,96.3z M73.6,96.3h-6v-9.9h5.9v0.6h-4v3.8h3.8v0.7h-3.8v4.2
			h4.1L73.6,96.3L73.6,96.3z M75.1,95l0.7-0.5c0.2,0.4,0.5,0.7,0.9,1c0.3,0.2,0.8,0.3,1.2,0.3c0.5,0,0.9-0.2,1.2-0.5
			c0.4-0.3,0.6-0.8,0.6-1.3c0-0.8-0.5-1.5-1.2-1.8l-2.2-1c-0.8-0.5-1.3-1.3-1.2-2.3c0-0.8,0.3-1.5,0.9-2.1c0.6-0.6,1.5-0.9,2.3-0.8
			c0.6,0,1.2,0.2,1.8,0.5c0.5,0.3,1,0.7,1.2,1.3l-0.7,0.4c-0.2-0.4-0.4-0.7-0.8-1c-0.4-0.3-0.8-0.4-1.3-0.4c-0.4,0-0.9,0.2-1.2,0.5
			c-0.3,0.3-0.5,0.8-0.4,1.2c0,0.6,0.4,1.1,1.2,1.5l2.2,1.1c0.8,0.5,1.3,1.4,1.2,2.4c0,0.8-0.4,1.6-1,2.2c-0.6,0.6-1.4,0.9-2.3,0.9
			c-0.6,0-1.3-0.1-1.8-0.4C75.8,95.9,75.4,95.5,75.1,95z M89.3,96.3h-1.9v-10h1.9v4.4h4.1v-4.4h1.9v9.9h-1.9v-4.8h-4.1L89.3,96.3
			L89.3,96.3z M98.6,91.3c0,1,0.2,2.1,0.6,3c0.5,1.3,2,1.9,3.3,1.4c0.6-0.3,1.1-0.8,1.4-1.4c0.8-2,0.8-4.1,0-6.1
			c-0.4-1-1.3-1.6-2.4-1.6c-1,0-2,0.6-2.3,1.6C98.8,89.1,98.6,90.2,98.6,91.3L98.6,91.3z M96.6,91.3c0-1.4,0.5-2.7,1.4-3.7
			c1.9-2,5-2,6.9-0.2c0.1,0.1,0.1,0.1,0.2,0.2c1.9,2.1,1.9,5.3,0,7.5c-1.9,1.9-5,2-6.9,0.1c-0.1-0.1-0.1-0.1-0.2-0.2
			C97.1,94,96.6,92.6,96.6,91.3L96.6,91.3z M107.9,86.3h1.9v7.1c0,0.6,0.3,1.2,0.8,1.6c0.4,0.3,0.9,0.5,1.3,0.5
			c0.5,0,1.1-0.1,1.5-0.4c0.6-0.3,0.9-1,0.9-1.6v-7.2h0.8v7.4c0,0.7-0.3,1.4-0.8,1.9c-0.7,0.7-1.7,1-2.7,0.9c-0.9,0-1.7-0.2-2.5-0.6
			c-0.8-0.6-1.3-1.5-1.2-2.5L107.9,86.3L107.9,86.3z M117.2,95l0.7-0.5c0.2,0.4,0.5,0.7,0.9,1c0.3,0.2,0.8,0.3,1.2,0.3
			c0.5,0,0.9-0.2,1.2-0.5c0.4-0.3,0.6-0.8,0.6-1.2c0-0.8-0.5-1.5-1.2-1.8l-2.2-1c-0.8-0.5-1.3-1.4-1.2-2.3c0-0.8,0.3-1.5,0.9-2.1
			c0.6-0.6,1.5-0.9,2.3-0.8c0.6,0,1.2,0.2,1.8,0.5c0.5,0.3,1,0.7,1.2,1.3l-0.7,0.4c-0.2-0.4-0.4-0.7-0.8-1c-0.4-0.3-0.8-0.4-1.3-0.4
			c-0.4,0-0.9,0.2-1.2,0.5c-0.3,0.3-0.5,0.8-0.4,1.2c0,0.6,0.4,1.1,1.2,1.5l2.2,1.1c0.8,0.5,1.3,1.4,1.2,2.4c0,0.8-0.4,1.6-1,2.2
			c-0.6,0.6-1.4,0.9-2.3,0.9c-0.6,0-1.3-0.1-1.8-0.4C117.9,95.9,117.4,95.5,117.2,95z M131.2,96.3h-5.9v-10h5.9v0.6h-4v3.8h3.8v0.7
			h-3.8v4.2h4.1L131.2,96.3L131.2,96.3z"/>
		<path class="st0" d="M95.7,21.1h2.1c1.9,0.1,3.8-0.4,5.3-1.5c1.6-1.4,2.5-3.5,2.4-5.6c0.1-1.9-0.5-3.7-1.7-5.2
			c-1.5-1.7-4-2.6-7.4-2.6h-0.7V3.7h5.8c4,0,7,1.2,9,3.6c1.5,1.8,2.3,4,2.3,6.3c0.1,2.1-0.6,4.1-1.9,5.7c-1.3,1.5-3,2.6-5,3.1
			c2.4,0.5,4.5,1.7,6.2,3.4c1.5,1.7,2.3,4,2.2,6.3c0.1,2.8-0.9,5.5-2.8,7.5c-2.2,2.1-5.4,3.2-9.6,3.2H87.2v-2.5h11.3
			c3.2,0,5.4-0.8,6.8-2.5c1.1-1.6,1.7-3.5,1.6-5.5c0-2-0.5-3.9-1.7-5.5c-1.5-2.1-3.9-3.3-6.5-3.1h-3.1V21.1z"/>
	</g>
</g>
</svg>
