<svg xmlns="http://www.w3.org/2000/svg" xmlns:xlink="http://www.w3.org/1999/xlink"><defs><style>.cls-1{fill:#695339;}.cls-1,.cls-2{fill-rule:evenodd;}.cls-2{fill:#ae9675;}</style></defs><symbol id="call-answer" viewBox="0 0 348.077 348.077">
<g>
	<g>
		<g>
			<path d="M340.273,275.083l-53.755-53.761c-10.707-10.664-28.438-10.34-39.518,0.744l-27.082,27.076
				c-1.711-0.943-3.482-1.928-5.344-2.973c-17.102-9.476-40.509-22.464-65.14-47.113c-24.704-24.701-37.704-48.144-47.209-65.257
				c-1.003-1.813-1.964-3.561-2.913-5.221l18.176-18.149l8.936-8.947c11.097-11.1,11.403-28.826,0.721-39.521L73.39,8.194
				C62.708-2.486,44.969-2.162,33.872,8.938l-15.15,15.237l0.414,0.411c-5.08,6.482-9.325,13.958-12.484,22.02
				C3.74,54.28,1.927,61.603,1.098,68.941C-6,127.785,20.89,181.564,93.866,254.541c100.875,100.868,182.167,93.248,185.674,92.876
				c7.638-0.913,14.958-2.738,22.397-5.627c7.992-3.122,15.463-7.361,21.941-12.43l0.331,0.294l15.348-15.029
				C350.631,303.527,350.95,285.795,340.273,275.083z"/>
		</g>
	</g>
</g>
<g>
</g>
<g>
</g>
<g>
</g>
<g>
</g>
<g>
</g>
<g>
</g>
<g>
</g>
<g>
</g>
<g>
</g>
<g>
</g>
<g>
</g>
<g>
</g>
<g>
</g>
<g>
</g>
<g>
</g>
</symbol><symbol id="envelope" viewBox="0 0 511.626 511.626">
<g>
	<g>
		<path d="M49.106,178.729c6.472,4.567,25.981,18.131,58.528,40.685c32.548,22.554,57.482,39.92,74.803,52.099
			c1.903,1.335,5.946,4.237,12.131,8.71c6.186,4.476,11.326,8.093,15.416,10.852c4.093,2.758,9.041,5.852,14.849,9.277
			c5.806,3.422,11.279,5.996,16.418,7.7c5.14,1.718,9.898,2.569,14.275,2.569h0.287h0.288c4.377,0,9.137-0.852,14.277-2.569
			c5.137-1.704,10.615-4.281,16.416-7.7c5.804-3.429,10.752-6.52,14.845-9.277c4.093-2.759,9.229-6.376,15.417-10.852
			c6.184-4.477,10.232-7.375,12.135-8.71c17.508-12.179,62.051-43.11,133.615-92.79c13.894-9.703,25.502-21.411,34.827-35.116
			c9.332-13.699,13.993-28.07,13.993-43.105c0-12.564-4.523-23.319-13.565-32.264c-9.041-8.947-19.749-13.418-32.117-13.418H45.679
			c-14.655,0-25.933,4.948-33.832,14.844C3.949,79.562,0,91.934,0,106.779c0,11.991,5.236,24.985,15.703,38.974
			C26.169,159.743,37.307,170.736,49.106,178.729z"/>
		<path d="M483.072,209.275c-62.424,42.251-109.824,75.087-142.177,98.501c-10.849,7.991-19.65,14.229-26.409,18.699
			c-6.759,4.473-15.748,9.041-26.98,13.702c-11.228,4.668-21.692,6.995-31.401,6.995h-0.291h-0.287
			c-9.707,0-20.177-2.327-31.405-6.995c-11.228-4.661-20.223-9.229-26.98-13.702c-6.755-4.47-15.559-10.708-26.407-18.699
			c-25.697-18.842-72.995-51.68-141.896-98.501C17.987,202.047,8.375,193.762,0,184.437v226.685c0,12.57,4.471,23.319,13.418,32.265
			c8.945,8.949,19.701,13.422,32.264,13.422h420.266c12.56,0,23.315-4.473,32.261-13.422c8.949-8.949,13.418-19.694,13.418-32.265
			V184.437C503.441,193.569,493.927,201.854,483.072,209.275z"/>
	</g>
</g>
<g>
</g>
<g>
</g>
<g>
</g>
<g>
</g>
<g>
</g>
<g>
</g>
<g>
</g>
<g>
</g>
<g>
</g>
<g>
</g>
<g>
</g>
<g>
</g>
<g>
</g>
<g>
</g>
<g>
</g>
</symbol><symbol id="facebook-logo" viewBox="0 0 96.124 96.123">
<g>
	<path d="M72.089,0.02L59.624,0C45.62,0,36.57,9.285,36.57,23.656v10.907H24.037c-1.083,0-1.96,0.878-1.96,1.961v15.803
		c0,1.083,0.878,1.96,1.96,1.96h12.533v39.876c0,1.083,0.877,1.96,1.96,1.96h16.352c1.083,0,1.96-0.878,1.96-1.96V54.287h14.654
		c1.083,0,1.96-0.877,1.96-1.96l0.006-15.803c0-0.52-0.207-1.018-0.574-1.386c-0.367-0.368-0.867-0.575-1.387-0.575H56.842v-9.246
		c0-4.444,1.059-6.7,6.848-6.7l8.397-0.003c1.082,0,1.959-0.878,1.959-1.96V1.98C74.046,0.899,73.17,0.022,72.089,0.02z"/>
</g>
<g>
</g>
<g>
</g>
<g>
</g>
<g>
</g>
<g>
</g>
<g>
</g>
<g>
</g>
<g>
</g>
<g>
</g>
<g>
</g>
<g>
</g>
<g>
</g>
<g>
</g>
<g>
</g>
<g>
</g>
</symbol><symbol id="goal" viewBox="-20 -24 647.99967 647"><path d="m443.535156 279.71875c-27.566406 0-49.917968-22.347656-49.917968-49.917969 0-27.566406 22.351562-49.917969 49.917968-49.917969 27.570313 0 49.917969 22.351563 49.917969 49.917969-.03125 27.558594-22.359375 49.886719-49.917969 49.917969zm0-79.867188c-16.539062 0-29.949218 13.410157-29.949218 29.949219 0 16.546875 13.410156 29.949219 29.949218 29.949219 16.546875 0 29.949219-13.402344 29.949219-29.949219 0-16.539062-13.402344-29.949219-29.949219-29.949219zm0 0"/><path d="m164 279.71875c-27.566406 0-49.917969-22.347656-49.917969-49.917969 0-27.566406 22.351563-49.917969 49.917969-49.917969 27.570312 0 49.917969 22.351563 49.917969 49.917969-.03125 27.558594-22.359375 49.886719-49.917969 49.917969zm0-79.867188c-16.539062 0-29.949219 13.410157-29.949219 29.949219 0 16.546875 13.410157 29.949219 29.949219 29.949219 16.546875 0 29.949219-13.402344 29.949219-29.949219 0-16.539062-13.402344-29.949219-29.949219-29.949219zm0 0"/><path d="m503.4375 344.035156 95.171875-86.515625c11.132813-10.363281 11.914063-27.742187 1.75-39.058593-10.164063-11.316407-27.523437-12.40625-39.015625-2.445313l-71.683594 63.703125h-100.769531l-75.140625 91.847656v-251.582031h99.835938v39.933594h164.496093l-23.957031-59.902344 23.957031-59.898437h-114.578125v-39.933594h-169.71875v371.382812l-75.132812-91.847656h-100.769532l-71.683593-63.714844c-11.5-9.980468-28.878907-8.898437-39.050781 2.425782-10.179688 11.328124-9.394532 28.71875 1.765624 39.089843l95.1875 86.515625v235.183594h-99.835937v19.96875h599.003906v-19.96875h-99.832031zm-39.933594-283.953125h85.085938l-15.96875 39.933594 15.96875 39.933594h-115.039063v-19.964844h29.953125zm-149.753906-39.933593h129.785156v79.867187h-129.785156zm-109.816406 559.070312h-29.949219v-139.765625h-19.96875v139.765625h-29.949219v-244.011719l-101.710937-92.425781c-2.863281-2.664062-3.371094-7.011719-1.207031-10.273438 1.265624-1.898437 3.289062-3.15625 5.550781-3.449218 2.261719-.296875 4.542969.402344 6.25 1.914062l77.34375 68.710938h98.894531l74.234375 90.734375c2.878906 3.4375 2.425781 8.554687-1.007813 11.4375-3.441406 2.875-8.5625 2.421875-11.4375-1.015625l-67.042968-78.191406zm179.703125 0h-159.734375v-202.660156l31.949218 37.238281c9.261719 10.789063 25.117188 12.957031 36.933594 5.050781.371094-.25.691406-.566406 1.054688-.839844v81.34375h19.964844v-81.324218c.375.285156.707031.621094 1.105468.882812 11.808594 7.851563 27.617188 5.675782 36.859375-5.082031l31.867188-37.269531zm99.832031 0h-29.949219v-139.765625h-19.96875v139.765625h-29.949219v-256.570312l-67.035156 78.222656c-2.683594 3.109375-7.269531 3.722656-10.671875 1.425781-1.90625-1.253906-3.1875-3.265625-3.515625-5.523437-.34375-2.261719.285156-4.5625 1.738282-6.328126l74.234374-90.761718h98.898438l77.328125-68.742188c1.695313-1.535156 3.988281-2.242187 6.25-1.925781 2.296875.289063 4.34375 1.574219 5.601563 3.515625 2.148437 3.246094 1.621093 7.574219-1.25 10.210938l-101.710938 92.464843zm0 0"/></symbol><symbol id="helping" viewBox="0 0 512.002 512.002">
<g>
	<g>
		<path d="M109.834,496.21l-15.055-21.206c-3.196-4.504-9.439-5.563-13.943-2.366c-4.503,3.197-5.563,9.439-2.365,13.943
			l15.055,21.207c1.95,2.747,5.032,4.212,8.163,4.212c2.002,0,4.023-0.6,5.78-1.847C111.972,506.956,113.032,500.714,109.834,496.21
			z"/>
	</g>
</g>
<g>
	<g>
		<path d="M225.206,499.946l-16.384-78.088c-7.967-37.972-30.087-70.806-62.283-92.455l-34.981-23.522
			c-14.027-9.43-32.881-7.402-44.605,4.553V189.938c0-15.816-10.783-29.254-26.223-32.681c-9.965-2.214-20.243,0.184-28.204,6.571
			c-7.96,6.387-12.525,15.904-12.525,26.11V344.99c0,20.313,6.216,39.806,17.975,56.371l17.833,25.121
			c1.95,2.747,5.032,4.212,8.163,4.212c2.002,0,4.023-0.6,5.78-1.847c4.503-3.197,5.563-9.439,2.365-13.943l-17.833-25.121
			c-9.344-13.163-14.283-28.652-14.283-44.794V189.938c0-4.108,1.838-7.939,5.042-10.511c3.203-2.571,7.34-3.536,11.354-2.645
			c6.215,1.379,10.556,6.789,10.556,13.156v123.016c0,17.414,6.398,34.005,18.021,46.913c0.498,0.597,1.01,1.188,1.551,1.761
			c6.641,7.037,14.449,15.329,21.803,23.145l10.295,10.957c0.033,0.035,0.069,0.065,0.103,0.099
			c8.807,9.367,15.302,16.284,15.438,16.428c3.779,4.025,10.109,4.225,14.135,0.444s4.225-10.109,0.443-14.135
			c-0.182-0.194-11.888-12.659-25.256-26.868l-22.929-24.403c-0.058-0.062-0.111-0.127-0.169-0.189
			c-5.376-6.43-5.309-15.753,0.326-22.115c4.985-5.626,13.449-6.706,19.686-2.513L135.379,346
			c27.848,18.725,46.979,47.123,53.869,79.965l16.385,78.089c0.989,4.713,5.146,7.948,9.777,7.948c0.68,0,1.371-0.07,2.063-0.215
			C222.878,510.653,226.34,505.351,225.206,499.946z"/>
	</g>
</g>
<g>
	<g>
		<path d="M74.089,445.858l-0.064-0.09c-3.21-4.496-9.454-5.54-13.949-2.332s-5.539,9.453-2.332,13.948l0.064,0.09
			c1.952,2.735,5.027,4.193,8.149,4.193c2.01,0,4.039-0.604,5.8-1.861C76.251,456.598,77.296,450.353,74.089,445.858z"/>
	</g>
</g>
<g>
	<g>
		<path d="M499.475,163.829c-7.96-6.387-18.243-8.781-28.203-6.571c-15.44,3.426-26.224,16.865-26.224,32.681v120.496
			c-11.723-11.955-30.579-13.983-44.605-4.553l-34.981,23.521c-32.197,21.648-54.316,54.483-62.283,92.455l-16.384,78.089
			c-1.134,5.405,2.328,10.706,7.733,11.84c0.692,0.145,1.384,0.215,2.063,0.215c4.632,0,8.788-3.236,9.777-7.949l16.384-78.089
			c6.891-32.841,26.021-61.24,53.869-79.964l34.981-23.521c6.235-4.194,14.699-3.114,19.686,2.512
			c5.628,6.354,5.703,15.662,0.347,22.092c-0.064,0.07-0.125,0.142-0.189,0.212c0,0-48.005,51.079-48.186,51.271
			c-3.781,4.026-3.582,10.354,0.443,14.135c4.026,3.781,10.354,3.582,14.135-0.444c0.136-0.144,40.998-43.591,47.639-50.628
			c0.541-0.573,1.053-1.164,1.551-1.761c11.622-12.908,18.021-29.499,18.021-46.913V189.938c0-6.367,4.341-11.777,10.557-13.156
			c4.013-0.89,8.149,0.075,11.354,2.645c3.204,2.571,5.042,6.402,5.042,10.511V344.99c0,16.142-4.939,31.631-14.283,44.794
			l-75.551,106.427c-3.197,4.503-2.138,10.746,2.365,13.943c1.758,1.247,3.778,1.847,5.78,1.847c3.13,0,6.213-1.466,8.163-4.212
			l75.551-106.427c11.759-16.565,17.975-36.058,17.975-56.371V189.938C511.999,179.732,507.435,170.216,499.475,163.829z"/>
	</g>
</g>
<g>
	<g>
		<path d="M382.658,191.66l-17.791-4.25v-3.19c11.563-8.1,19.145-21.513,19.145-36.671V124.42c0-24.679-20.077-44.756-44.756-44.756
			c-11.075,0-21.215,4.052-29.038,10.74C301.508,69.074,280.55,54,256.126,54c-24.454,0-45.434,15.113-54.124,36.484
			c-7.835-6.736-18.012-10.822-29.132-10.822c-24.679,0-44.756,20.077-44.756,44.756v1.537v21.592
			c0,15.158,7.582,28.571,19.145,36.671v3.19l-17.791,4.25c-21.242,5.075-36.078,23.872-36.078,45.712v18.676
			c0,5.523,4.478,10,10,10h45.952c-0.071,1.213-0.12,2.432-0.12,3.661v35.958c0,5.523,4.478,10,10,10h60.11c5.522,0,10-4.477,10-10
			s-4.478-10-10-10H209V275c0-5.523-4.478-10-10-10c-5.522,0-10,4.477-10,10v20.667h-19.777v-25.958
			c0-19.287,13.1-35.896,31.854-40.39l27.442-6.576l18.365,41.782c1.596,3.631,5.188,5.976,9.153,5.976h0.001
			c3.966,0,7.558-2.344,9.154-5.975l18.346-41.72l27.355,6.535c18.772,4.485,31.883,21.096,31.883,40.397v25.929h-19.777V275
			c0-5.523-4.478-10-10-10c-5.522,0-10,4.477-10,10v20.667h-11.333c-5.522,0-10,4.477-10,10s4.478,10,10,10h61.111
			c5.522,0,10-4.477,10-10v-35.929c0-1.239-0.05-2.467-0.122-3.69h46.082c5.522,0,10-4.477,10-10v-18.676
			C418.737,215.532,403.901,196.734,382.658,191.66z M339.256,99.662c13.102,0,23.858,10.231,24.702,23.123h-13.903
			c-11.688,0-23.19-2.814-33.529-8.172C320.329,105.825,329.087,99.662,339.256,99.662z M314.5,146.087
			c0.012-0.487,0.037-0.972,0.037-1.462v-8.906c11.221,4.644,23.288,7.066,35.518,7.066h13.957v4.763
			c0,13.65-11.105,24.756-24.756,24.756S314.5,161.198,314.5,147.547V146.087z M217.716,112.41L217.716,112.41
			c0-21.179,17.23-38.41,38.41-38.41c19.103,0,34.992,14.018,37.926,32.306l-16.835-9.891c-4.211-2.474-9.593-1.545-12.73,2.2
			c-8.227,9.818-20.292,15.449-33.102,15.449h-13.669V112.41z M172.871,99.662c10.169,0,18.926,6.164,22.73,14.95
			c-10.34,5.358-21.841,8.172-33.529,8.172h-13.903C149.013,109.893,159.77,99.662,172.871,99.662z M148.115,142.784h13.957
			c12.243,0,24.323-2.427,35.555-7.081v11.843c0,13.65-11.105,24.756-24.756,24.756s-24.756-11.104-24.756-24.755V142.784z
			 M196.417,209.869c-19.674,4.714-35.136,18.431-42.495,36.178h-40.532v-8.676c0-12.546,8.522-23.345,20.725-26.26l25.468-6.084
			c4.501-1.075,7.677-5.098,7.677-9.726v-3.362c1.84,0.231,3.71,0.364,5.611,0.364c1.887,0,3.744-0.131,5.57-0.359v2.853
			c-0.007,0.149-0.01,0.298-0.011,0.447c-0.002,3.281,1.611,6.495,4.573,8.411c1.116,0.723,2.322,1.193,3.553,1.428l14.917,3.574
			L196.417,209.869z M224.311,194.345c-2.569-1.133-5.247-2.039-8.007-2.7l-17.864-4.281v-3.116
			c3.224-2.253,6.139-4.916,8.667-7.918c4.466,6.88,10.334,12.763,17.204,17.244V194.345z M267.743,209.038l-11.702,26.615
			l-11.729-26.683v-7.136c3.817,0.787,7.768,1.202,11.814,1.202c3.977,0,7.861-0.403,11.617-1.164V209.038z M256.126,183.035
			c-21.18,0.001-38.41-17.23-38.41-38.41v-10.562h13.669c15.858,0,30.936-5.897,42.492-16.415l20.622,12.116v16.324
			C293.727,166.591,276.816,183.035,256.126,183.035z M287.743,194.377V193.7c6.926-4.478,12.846-10.376,17.347-17.286
			c2.511,2.968,5.401,5.602,8.594,7.834v3.116l-17.865,4.281C293.035,192.313,290.334,193.23,287.743,194.377z M398.736,246.047
			h-40.67c-7.366-17.747-22.839-31.456-42.525-36.159l-5.021-1.199l14.997-3.594c1.248-0.232,2.474-0.708,3.605-1.44
			c2.957-1.913,4.565-5.127,4.565-8.408c0-0.078-0.001-0.157-0.003-0.235v-3.068c1.827,0.228,3.683,0.359,5.57,0.359
			c1.901,0,3.771-0.133,5.611-0.364v3.362c0,4.628,3.176,8.651,7.677,9.726l25.468,6.084c12.203,2.916,20.726,13.714,20.726,26.26
			V246.047z"/>
	</g>
</g>
<g>
	<g>
		<path d="M263.069,298.59c-1.869-1.86-4.439-2.92-7.069-2.92c-2.641,0-5.21,1.06-7.07,2.92c-1.87,1.87-2.93,4.44-2.93,7.08
			c0,2.63,1.06,5.2,2.93,7.07c1.86,1.86,4.43,2.93,7.07,2.93c2.63,0,5.2-1.07,7.069-2.93c1.86-1.87,2.931-4.44,2.931-7.07
			C266,303.03,264.93,300.46,263.069,298.59z"/>
	</g>
</g>
<g>
	<g>
		<path d="M255.993,0c-5.522,0-10,4.477-10,10v14.963c0,5.523,4.478,10,10,10c5.522,0,10-4.477,10-10V10
			C265.993,4.477,261.516,0,255.993,0z"/>
	</g>
</g>
<g>
	<g>
		<path d="M219.157,32.619l-10.49-10.48c-3.907-3.904-10.238-3.901-14.142,0.006c-3.904,3.907-3.9,10.239,0.007,14.142l10.491,10.48
			c1.952,1.951,4.51,2.926,7.067,2.926c2.561,0,5.121-0.978,7.074-2.932C223.066,42.854,223.064,36.522,219.157,32.619z"/>
	</g>
</g>
<g>
	<g>
		<path d="M317.222,22.395c-3.907-3.903-10.24-3.901-14.142,0.007l-10.409,10.419c-3.903,3.907-3.9,10.239,0.007,14.142
			c1.953,1.951,4.51,2.926,7.068,2.926c2.561,0,5.122-0.978,7.074-2.933l10.409-10.419C321.132,32.63,321.129,26.298,317.222,22.395
			z"/>
	</g>
</g>
<g>
</g>
<g>
</g>
<g>
</g>
<g>
</g>
<g>
</g>
<g>
</g>
<g>
</g>
<g>
</g>
<g>
</g>
<g>
</g>
<g>
</g>
<g>
</g>
<g>
</g>
<g>
</g>
<g>
</g>
</symbol><symbol id="instagram" viewBox="0 0 512 512"><path d="m437 0h-362c-41.351562 0-75 33.648438-75 75v362c0 41.351562 33.648438 75 75 75h362c41.351562 0 75-33.648438 75-75v-362c0-41.351562-33.648438-75-75-75zm-180 390c-74.441406 0-135-60.558594-135-135s60.558594-135 135-135 135 60.558594 135 135-60.558594 135-135 135zm150-240c-24.8125 0-45-20.1875-45-45s20.1875-45 45-45 45 20.1875 45 45-20.1875 45-45 45zm0 0"/><path d="m407 90c-8.277344 0-15 6.722656-15 15s6.722656 15 15 15 15-6.722656 15-15-6.722656-15-15-15zm0 0"/><path d="m257 150c-57.890625 0-105 47.109375-105 105s47.109375 105 105 105 105-47.109375 105-105-47.109375-105-105-105zm0 0"/></symbol><symbol id="logo" viewBox="0 0 176.11 96.53"><title>logo</title><g id="&#x421;&#x43B;&#x43E;&#x439;_2" data-name="&#x421;&#x43B;&#x43E;&#x439; 2"><g id="&#x421;&#x43B;&#x43E;&#x439;_1-2" data-name="&#x421;&#x43B;&#x43E;&#x439; 1"><path class="cls-1" d="M3.62,78.94H0V59.67H3.62v8.47h7.94V59.67h3.62V78.94H11.56V69.65H3.62v9.28Zm27.33,0H19.41V59.67H30.83v1.23H23.06v7.45h7.33v1.26H23.06v8.12h7.88v1.23Zm4.88,0H34.28V59.67h3.24l10.1,13.25.06-13.25h1.55V78.94H47.62L35.88,63.55l-.06,15.39Zm21.25-18V77.71h2.25q3.94,0,5.69-2.57a9.58,9.58,0,0,0,1.34-5.43,10.53,10.53,0,0,0-1.69-6.22,5.94,5.94,0,0,0-5.14-2.6Zm-3.65,18V59.67h6.31a10,10,0,0,1,7.74,3.09A9.82,9.82,0,0,1,70,69.65a8.93,8.93,0,0,1-2.69,6.95,9.89,9.89,0,0,1-6.92,2.34Zm22.95,0H72.73V59.67h8.12A5.74,5.74,0,0,1,85,61.17a5.17,5.17,0,0,1,1.56,3.9,4.25,4.25,0,0,1-1.39,3.36,6.5,6.5,0,0,1-3.66,1.49l5.14,9h-4l-5.28-9.87h.26a6.62,6.62,0,0,0,3.85-.93A3.58,3.58,0,0,0,82.91,65a4,4,0,0,0-1-2.83,4.72,4.72,0,0,0-3.62-1.26h-2v18Zm16.82,0H89.57V59.67h3.62V78.94Zm8.93-9.14L95.59,59.67h4.32l4.55,6.89,4.93-6.89h2.07l-6,8.41,7.09,10.86h-4.5l-4.93-7.59-5.46,7.59h-2l6.48-9.14Zm23.76-8.9v7.36h2.54a4.14,4.14,0,0,0,2.63-.76,3.29,3.29,0,0,0,1.17-2.77,3.77,3.77,0,0,0-.82-2.57,4.65,4.65,0,0,0-3.65-1.26Zm0,8.61v8.2h2.89a4.09,4.09,0,0,0,3.36-1.26,4.2,4.2,0,0,0,.79-2.69,4.61,4.61,0,0,0-.82-2.72,3.68,3.68,0,0,0-3.18-1.55Zm-3.65,9.43V59.67h8a5.46,5.46,0,0,1,4.44,1.78,4.76,4.76,0,0,1,1.14,3.12,4.22,4.22,0,0,1-.93,2.79,4.68,4.68,0,0,1-2.45,1.53,5.66,5.66,0,0,1,3,1.69,4.51,4.51,0,0,1,1.08,3.09,4.91,4.91,0,0,1-1.4,3.68,6.48,6.48,0,0,1-4.73,1.58Zm25.2-6.31-2.83-7.07-2.8,7.07Zm6.28,6.31H150l-2-5.05h-6.66l-1.93,5.05h-1.69l7.85-19.85,8.17,19.85Zm6.25,0h-3.62V59.67H160V78.94Zm16.15,0H164.72V59.67h3.65V77.42h7.74v1.52Z"/><polygon class="cls-1" points="71.16 38.88 63.85 38.88 63.85 0 71.16 0 71.16 17.08 87.18 17.08 87.18 0 94.48 0 94.48 38.88 87.18 38.88 87.18 20.15 71.16 20.15 71.16 38.88 71.16 38.88"/><path class="cls-1" d="M87,46c25.38,0,46-2.38,46-1.8s-20.58,4.65-46,4.65-46-4.07-46-4.65S61.65,46,87,46Z"/><path class="cls-2" d="M87,50.33c22.74,0,41.19-2.13,41.19-1.62S109.77,52.88,87,52.88s-41.19-3.65-41.19-4.17S64.29,50.33,87,50.33Z"/><path class="cls-1" d="M43.77,95l.69-.51a3.18,3.18,0,0,0,.87,1,2.05,2.05,0,0,0,1.17.32,1.82,1.82,0,0,0,1.24-.49A1.57,1.57,0,0,0,48.31,94a2,2,0,0,0-1.2-1.81l-2.24-1a2.5,2.5,0,0,1-1.22-2.26,2.75,2.75,0,0,1,.9-2.07,3.2,3.2,0,0,1,2.3-.85,3.52,3.52,0,0,1,1.78.47,2.91,2.91,0,0,1,1.22,1.3l-.65.42a2.94,2.94,0,0,0-.77-1,2,2,0,0,0-1.28-.41,1.5,1.5,0,0,0-1.18.5,1.79,1.79,0,0,0-.44,1.23q0,.93,1.2,1.52L49,91.13a2.71,2.71,0,0,1,1.22,2.36,2.77,2.77,0,0,1-1,2.18,3.36,3.36,0,0,1-2.28.87,4.4,4.4,0,0,1-1.84-.36A2.9,2.9,0,0,1,43.77,95ZM56,93l-1.46-3.64L53,93Zm3.24,3.25H57.28l-1.05-2.6H52.79l-1,2.6h-.87L55,86l4.22,10.24Zm7.27,0H60.59V86.31h1.88v9.16h4v.78Zm7.06,0H67.58V86.31h5.89v.63h-4v3.84h3.78v.65H69.46v4.19h4.07v.63ZM75.08,95l.69-.51a3.17,3.17,0,0,0,.87,1,2.05,2.05,0,0,0,1.17.32,1.82,1.82,0,0,0,1.24-.49A1.57,1.57,0,0,0,79.61,94a2,2,0,0,0-1.2-1.81l-2.24-1a2.5,2.5,0,0,1-1.22-2.26,2.75,2.75,0,0,1,.9-2.07,3.2,3.2,0,0,1,2.3-.85,3.51,3.51,0,0,1,1.78.47,2.91,2.91,0,0,1,1.22,1.3l-.65.42a2.93,2.93,0,0,0-.77-1,2,2,0,0,0-1.28-.41,1.5,1.5,0,0,0-1.18.5,1.79,1.79,0,0,0-.44,1.23q0,.93,1.2,1.52l2.24,1.07a2.71,2.71,0,0,1,1.22,2.36,2.77,2.77,0,0,1-1,2.18,3.36,3.36,0,0,1-2.28.87,4.4,4.4,0,0,1-1.84-.36A2.9,2.9,0,0,1,75.08,95Zm14.2,1.26H87.41V86.31h1.87v4.37h4.1V86.31h1.87v9.94H93.37V91.46h-4.1v4.79Zm9.35-5a7.15,7.15,0,0,0,.56,3,2.56,2.56,0,0,0,4.73,0,8.43,8.43,0,0,0,0-6.07,2.49,2.49,0,0,0-2.38-1.58,2.45,2.45,0,0,0-2.35,1.57,7.09,7.09,0,0,0-.57,3Zm-2,0A5.32,5.32,0,0,1,98,87.54a4.89,4.89,0,0,1,7.08,0,5.72,5.72,0,0,1,0,7.48A4.89,4.89,0,0,1,98,95a5.32,5.32,0,0,1-1.39-3.74Zm11.28-5h1.88v7.11a1.93,1.93,0,0,0,.77,1.63,2.2,2.2,0,0,0,1.35.47,3,3,0,0,0,1.52-.36,1.76,1.76,0,0,0,.87-1.64v-7.2h.8v7.42a2.54,2.54,0,0,1-.8,1.88,3.72,3.72,0,0,1-2.7.92,4.42,4.42,0,0,1-2.47-.63,2.81,2.81,0,0,1-1.23-2.53V86.31ZM117.15,95l.69-.51a3.18,3.18,0,0,0,.87,1,2.05,2.05,0,0,0,1.17.32,1.82,1.82,0,0,0,1.24-.49,1.57,1.57,0,0,0,.55-1.23,2,2,0,0,0-1.2-1.81l-2.24-1A2.5,2.5,0,0,1,117,88.95a2.75,2.75,0,0,1,.9-2.07,3.2,3.2,0,0,1,2.3-.85,3.51,3.51,0,0,1,1.78.47,2.91,2.91,0,0,1,1.22,1.3l-.65.42a2.93,2.93,0,0,0-.77-1,2,2,0,0,0-1.28-.41,1.5,1.5,0,0,0-1.18.5,1.79,1.79,0,0,0-.44,1.23q0,.93,1.2,1.52l2.24,1.07a2.71,2.71,0,0,1,1.22,2.36,2.77,2.77,0,0,1-1,2.18,3.36,3.36,0,0,1-2.28.87,4.4,4.4,0,0,1-1.84-.36A2.9,2.9,0,0,1,117.15,95Zm14.09,1.26h-5.95V86.31h5.89v.63h-4v3.84H131v.65h-3.78v4.19h4.07v.63Z"/><path class="cls-2" d="M95.66,21.07H97.8a8.45,8.45,0,0,0,5.33-1.54,6.7,6.7,0,0,0,2.37-5.63,7.63,7.63,0,0,0-1.66-5.21c-1.5-1.7-4-2.55-7.41-2.55h-.72V3.65h5.82q6,0,9,3.61a9.63,9.63,0,0,1,2.31,6.34,8.56,8.56,0,0,1-1.9,5.66,9.49,9.49,0,0,1-5,3.11,11.5,11.5,0,0,1,6.16,3.44,9.15,9.15,0,0,1,2.19,6.28,10,10,0,0,1-2.84,7.47q-3.26,3.19-9.6,3.2H87.19V40.26H98.52c3.16,0,5.44-.84,6.81-2.55a8.46,8.46,0,0,0,1.6-5.45,9.28,9.28,0,0,0-1.66-5.51,7.43,7.43,0,0,0-6.46-3.14H95.66V21.07Z"/></g></g></symbol><symbol id="loyalty" viewBox="0 0 480.038 480.038">
<g>
	<g>
		<path d="M449.542,358.576c16.964-13.998,19.368-39.098,5.37-56.062c-7.605-9.216-18.945-14.53-30.893-14.477
			c-1.113,0-2.16,0.239-3.25,0.329c-6.327-14.692-20.754-24.243-36.75-24.329c-16.53-0.016-31.341,10.211-37.181,25.675
			c-7.04-2.234-14.598-2.234-21.638,0c-7.777-20.534-30.727-30.875-51.261-23.098c-10.604,4.016-18.989,12.37-23.045,22.959
			c-7.087-2.096-14.635-2.047-21.694,0.139c-7.778-20.535-30.731-30.876-51.265-23.097c-10.652,4.035-19.062,12.445-23.097,23.097
			c-7.04-2.234-14.598-2.234-21.638,0c-5.841-15.464-20.651-25.691-37.181-25.675c-15.996,0.086-30.424,9.636-36.75,24.329
			c-1.089-0.089-2.137-0.329-3.25-0.329c-21.993-0.098-39.902,17.652-40,39.645c-0.053,11.948,5.261,23.289,14.477,30.893
			c-18.978,10.562-30.669,30.65-30.477,52.368v61.094c-0.003,4.416,3.575,7.997,7.991,8c0.003,0,0.006,0,0.009,0h464
			c4.416,0.003,7.997-3.575,8-7.991c0-0.003,0-0.006,0-0.009v-61.094C480.211,389.226,468.521,369.138,449.542,358.576z
			 M424.019,304.038c13.249,0.014,23.986,10.751,24,24c0,13.255-10.745,24-24,24s-24-10.745-24-24S410.764,304.038,424.019,304.038z
			 M384.019,280.038c8.908,0.058,17.057,5.026,21.19,12.918c-12.954,6.875-21.088,20.307-21.179,34.972
			c-2.777,0.014-5.537-0.445-8.16-1.359c-0.435-11.5-5.835-22.247-14.803-29.46C364.076,286.951,373.426,279.997,384.019,280.038z
			 M336.019,304.038c13.249,0.014,23.986,10.751,24,24c0,13.255-10.745,24-24,24s-24-10.745-24-24S322.764,304.038,336.019,304.038z
			 M288.019,280.038c10.593-0.041,19.943,6.913,22.951,17.07c-8.917,7.176-14.305,17.848-14.785,29.284
			c-5.262,1.87-11.007,1.879-16.274,0.024c-0.471-11.495-5.867-22.232-14.811-29.469
			C268.168,286.869,277.484,279.995,288.019,280.038z M219.402,315.706c4.331-7.256,12.167-11.69,20.617-11.668
			c4.301-0.016,8.524,1.155,12.203,3.383c11.351,6.775,15.06,21.469,8.285,32.82c-6.775,11.351-21.469,15.06-32.82,8.285
			C216.336,341.751,212.627,327.057,219.402,315.706z M192.019,280.038c10.593-0.041,19.943,6.913,22.951,17.07
			c-8.917,7.176-14.305,17.848-14.785,29.284c-5.283,1.877-11.05,1.877-16.333,0c-0.48-11.435-5.868-22.108-14.785-29.284
			C172.076,286.951,181.426,279.997,192.019,280.038z M144.019,304.038c13.249,0.014,23.986,10.751,24,24c0,13.255-10.745,24-24,24
			s-24-10.745-24-24S130.764,304.038,144.019,304.038z M96.019,280.038c10.593-0.041,19.943,6.913,22.951,17.07
			c-8.968,7.213-14.368,17.96-14.803,29.46c-2.623,0.914-5.382,1.374-8.16,1.359c-0.091-14.665-8.225-28.096-21.179-34.972
			C78.962,285.065,87.111,280.097,96.019,280.038z M56.019,304.038c13.255,0,24,10.745,24,24s-10.745,24-24,24
			c-13.249-0.014-23.986-10.751-24-24C32.019,314.783,42.764,304.038,56.019,304.038z M88.019,410.944v53.094h-72v-53.094
			c-0.746-22.873,17.131-42.049,40-42.906c15.229,0.279,28.957,9.244,35.335,23.076C89.157,397.495,88.03,404.196,88.019,410.944z
			 M81.497,358.614c4.854-3.977,8.706-9.041,11.243-14.781c1.092,0.089,2.181,0.205,3.279,0.205
			c3.658-0.008,7.297-0.517,10.816-1.512c2.475,6.246,6.485,11.766,11.66,16.05c-7.263,3.958-13.577,9.449-18.506,16.092
			C95.071,368.031,88.759,362.551,81.497,358.614z M184.019,410.944v53.094h-80v-53.094c-0.746-22.873,17.131-42.049,40-42.906
			C166.888,368.895,184.766,388.071,184.019,410.944z M169.542,358.576c5.175-4.284,9.185-9.804,11.661-16.05
			c7.07,2.016,14.563,2.016,21.633,0c2.475,6.246,6.485,11.766,11.66,16.05c-9.413,5.156-17.198,12.839-22.477,22.183
			C186.74,371.415,178.955,363.732,169.542,358.576z M280.019,410.944v53.094h-80v-53.094c-0.746-22.873,17.131-42.049,40-42.906
			C262.888,368.895,280.766,388.071,280.019,410.944z M265.542,358.576c5.175-4.284,9.185-9.804,11.661-16.05
			c7.07,2.016,14.563,2.016,21.633,0c2.475,6.246,6.485,11.766,11.66,16.05c-9.413,5.156-17.198,12.839-22.477,22.183
			C282.74,371.415,274.955,363.732,265.542,358.576z M376.019,410.944v53.094h-80v-53.094c-1.55-22.091,15.101-41.257,37.193-42.807
			c22.091-1.551,41.257,15.101,42.807,37.193C376.15,407.199,376.15,409.075,376.019,410.944z M380.049,374.668
			c-4.929-6.642-11.244-12.133-18.507-16.092c5.175-4.284,9.185-9.805,11.661-16.05c3.519,0.995,7.159,1.504,10.816,1.512
			c1.098,0,2.188-0.116,3.279-0.205c2.537,5.74,6.388,10.803,11.243,14.781C391.279,362.551,384.967,368.031,380.049,374.668z
			 M464.019,410.944v53.094h-72v-53.094c-0.011-6.749-1.138-13.449-3.335-19.831c6.378-13.832,20.106-22.797,35.335-23.076
			C446.888,368.895,464.766,388.071,464.019,410.944z"/>
	</g>
</g>
<g>
	<g>
		<path d="M335.048,18.817c-0.28-0.286-0.563-0.569-0.849-0.849c-24.372-23.957-63.448-23.957-87.82,0l-6.359,6.289l-6.359-6.289
			c-24.372-23.957-63.448-23.957-87.82,0c-23.425,22.956-23.805,60.555-0.849,83.979c0.288,0.294,0.579,0.584,0.873,0.872
			l88.555,86.93c3.111,3.052,8.092,3.052,11.203,0l88.578-86.953C357.623,79.84,358.004,42.242,335.048,18.817z M323.667,90.701
			c-0.229,0.235-0.461,0.467-0.696,0.696l-82.952,81.43l-82.93-81.406c-17.142-16.745-17.464-44.217-0.719-61.359
			c0.237-0.242,0.476-0.482,0.719-0.719h0c18.13-17.812,47.19-17.812,65.32,0l11.984,11.859c3.118,3.078,8.132,3.078,11.25,0
			l11.984-11.859c18.13-17.812,47.19-17.812,65.32,0C340.09,46.088,340.412,73.559,323.667,90.701z"/>
	</g>
</g>
<g>
	<g>
		<path d="M118.194,133.526c-0.738-0.805-1.51-1.578-2.316-2.316c-14.304-13.045-35.604-14.81-51.859-4.297
			c-16.258-10.505-37.552-8.741-51.859,4.297c-15.235,13.956-16.272,37.621-2.316,52.856c0.738,0.805,1.51,1.578,2.316,2.316
			l46.391,43.492c1.48,1.393,3.436,2.168,5.469,2.164c2.032,0.004,3.989-0.771,5.469-2.164l46.391-43.492
			C131.114,172.426,132.151,148.761,118.194,133.526z M106.504,173.147c-0.494,0.548-1.016,1.069-1.563,1.563l-40.922,38.359
			L23.097,174.71c-4.477-4.087-7.043-9.86-7.078-15.922c0.037-6.057,2.603-11.824,7.078-15.906c10.044-9.156,25.409-9.156,35.453,0
			c3.073,2.891,7.865,2.891,10.937,0c10.044-9.156,25.409-9.156,35.453,0C113.73,150.808,114.43,164.358,106.504,173.147z"/>
	</g>
</g>
<g>
	<g>
		<path d="M470.194,133.526c-0.738-0.805-1.51-1.578-2.316-2.316c-14.304-13.046-35.604-14.811-51.859-4.297
			c-16.258-10.505-37.552-8.741-51.859,4.297c-15.235,13.956-16.272,37.621-2.316,52.856c0.738,0.805,1.51,1.578,2.316,2.316
			l46.391,43.492c3.075,2.885,7.863,2.885,10.937,0l46.391-43.492C483.114,172.426,484.151,148.761,470.194,133.526z
			 M458.504,173.147c-0.494,0.548-1.016,1.069-1.563,1.563v0l-40.922,38.359l-40.922-38.359c-8.789-7.926-9.489-21.476-1.563-30.265
			c0.494-0.548,1.015-1.069,1.563-1.563c10.044-9.156,25.409-9.156,35.453,0c3.073,2.891,7.865,2.891,10.937,0
			c10.044-9.156,25.409-9.156,35.453,0C465.73,150.808,466.43,164.358,458.504,173.147z"/>
	</g>
</g>
<g>
</g>
<g>
</g>
<g>
</g>
<g>
</g>
<g>
</g>
<g>
</g>
<g>
</g>
<g>
</g>
<g>
</g>
<g>
</g>
<g>
</g>
<g>
</g>
<g>
</g>
<g>
</g>
<g>
</g>
</symbol><symbol id="morality" viewBox="0 0 463 463">
<path d="M462.988,319.813c0.001-0.105,0.012-0.208,0.012-0.313c0-0.023-0.003-0.046-0.004-0.07c-0.001-0.17-0.013-0.34-0.026-0.511
	c-0.006-0.083-0.01-0.166-0.019-0.248c-0.016-0.147-0.042-0.293-0.067-0.44c-0.018-0.105-0.033-0.211-0.056-0.315
	c-0.025-0.113-0.057-0.225-0.087-0.338c-0.036-0.135-0.07-0.27-0.113-0.401c-0.028-0.086-0.063-0.172-0.094-0.258
	c-0.056-0.153-0.113-0.304-0.179-0.452c-0.01-0.023-0.017-0.047-0.028-0.071L383,141.875V119h0.5c8.547,0,15.5-6.953,15.5-15.5
	v-1.188c0-7.648-5.48-14.083-13.03-15.302L255,65.875V52.446c4.971-5.571,8-12.91,8-20.946C263,14.131,248.869,0,231.5,0
	S200,14.131,200,31.5c0,8.036,3.029,15.375,8,20.946v12.7L76.951,86.988C69.447,88.239,64,94.669,64,102.277v1.223
	c0,8.547,6.953,15.5,15.5,15.5H80v22.875L0.672,316.396c-0.011,0.023-0.018,0.048-0.028,0.071c-0.065,0.147-0.122,0.299-0.178,0.451
	c-0.032,0.086-0.066,0.172-0.095,0.259c-0.043,0.131-0.078,0.266-0.113,0.401c-0.03,0.113-0.062,0.225-0.087,0.338
	c-0.022,0.104-0.038,0.21-0.056,0.315c-0.025,0.147-0.051,0.293-0.067,0.44c-0.009,0.082-0.012,0.166-0.019,0.249
	c-0.013,0.17-0.024,0.34-0.026,0.509c0,0.024-0.004,0.047-0.004,0.07c0,0.106,0.011,0.209,0.012,0.315
	c0.004,0.084,0.003,0.169,0.01,0.253C0.489,350.916,38.735,375,87.5,375s87.011-24.084,87.478-54.932
	c0.007-0.084,0.006-0.169,0.01-0.254c0.001-0.105,0.012-0.208,0.012-0.313c0-0.023-0.003-0.046-0.004-0.07
	c-0.001-0.17-0.013-0.34-0.026-0.511c-0.006-0.083-0.01-0.166-0.019-0.248c-0.016-0.147-0.042-0.293-0.067-0.44
	c-0.018-0.105-0.033-0.211-0.056-0.315c-0.025-0.113-0.057-0.225-0.087-0.338c-0.036-0.135-0.07-0.27-0.113-0.401
	c-0.028-0.086-0.063-0.172-0.094-0.258c-0.056-0.153-0.113-0.304-0.179-0.452c-0.01-0.023-0.017-0.047-0.028-0.071L95,141.875V119
	h113v162.945c-4.765,2.647-8,7.728-8,13.555v110.486l-47.51,14.847c-9.863,3.083-16.49,12.097-16.49,22.431V455.5
	c0,4.142,3.357,7.5,7.5,7.5h176c4.143,0,7.5-3.358,7.5-7.5v-12.237c0-10.334-6.627-19.348-16.49-22.431L263,405.986V295.5
	c0-5.827-3.235-10.908-8-13.555V119h113v22.875l-79.328,174.522c-0.011,0.023-0.018,0.048-0.028,0.071
	c-0.065,0.147-0.122,0.299-0.178,0.451c-0.032,0.086-0.066,0.172-0.095,0.259c-0.043,0.131-0.078,0.266-0.113,0.401
	c-0.03,0.113-0.062,0.225-0.087,0.338c-0.022,0.104-0.038,0.21-0.056,0.315c-0.025,0.147-0.051,0.293-0.067,0.44
	c-0.009,0.082-0.012,0.166-0.019,0.249c-0.013,0.17-0.024,0.34-0.026,0.509c0,0.024-0.004,0.047-0.004,0.07
	c0,0.106,0.011,0.209,0.012,0.315c0.004,0.084,0.003,0.169,0.01,0.253C288.489,350.916,326.735,375,375.5,375
	s87.011-24.084,87.478-54.932C462.985,319.983,462.984,319.898,462.988,319.813z M87.5,161.625L155.852,312H19.148L87.5,161.625z
	 M87.5,360c-34.728,0-64.692-14.482-71.194-33h142.389C152.192,345.518,122.228,360,87.5,360z M248,295.5V404h-33V295.5
	c0-0.276,0.225-0.5,0.5-0.5h32C247.775,295,248,295.224,248,295.5z M223,280V61.825c2.706,0.76,5.555,1.175,8.5,1.175
	s5.794-0.415,8.5-1.175V280H223z M231.5,15c9.098,0,16.5,7.402,16.5,16.5S240.598,48,231.5,48S215,40.598,215,31.5
	S222.402,15,231.5,15z M79.5,104c-0.275,0-0.5-0.224-0.5-0.5v-1.223c0-0.246,0.176-0.453,0.418-0.493L208,80.354V104H79.5z
	 M312,443.263V448H151v-4.737c0-3.738,2.397-6.999,5.965-8.113l51.68-16.15h45.711l51.68,16.15
	C309.603,436.265,312,439.525,312,443.263z M255,81.07l128.579,20.749c0.244,0.039,0.421,0.247,0.421,0.494v1.188
	c0,0.276-0.225,0.5-0.5,0.5H255V81.07z M375.5,161.625L443.852,312H307.148L375.5,161.625z M375.5,360
	c-34.728,0-64.692-14.482-71.194-33h142.389C440.192,345.518,410.228,360,375.5,360z"/>
<g>
</g>
<g>
</g>
<g>
</g>
<g>
</g>
<g>
</g>
<g>
</g>
<g>
</g>
<g>
</g>
<g>
</g>
<g>
</g>
<g>
</g>
<g>
</g>
<g>
</g>
<g>
</g>
<g>
</g>
</symbol><symbol id="perfectionism" viewBox="0 0 512 512">
<g>
	<g>
		<path d="M351.117,288.678l-69.513-42.712c-0.847-0.521-1.821-0.874-2.804-1.028l-21.763-3.84c-4.026-0.712-7.98,2.058-8.69,6.084
			s2.057,7.98,6.083,8.69l20.537,3.624l68.297,41.965c3.334,2.049,7.907,1.054,10.12-2.166
			C355.758,295.839,354.686,290.873,351.117,288.678z"/>
	</g>
</g>
<g>
	<g>
		<path d="M509.513,291.083c-2.83-3.027-7.576-3.187-10.603-0.359l-30.409,28.42L329.163,181.662L509.161,12.974
			c3.022-2.833,3.176-7.58,0.344-10.602c-2.832-3.022-7.58-3.176-10.602-0.344l-185.69,174.022
			c-3.062,2.869-3.126,7.865-0.139,10.813l12.325,12.159l-3.934,3.474l-82.381-7.094c-1.271-0.108-2.592,0.111-3.752,0.647
			l-65.273,29.728c-0.19-0.049-0.38-0.097-0.577-0.132l-37.546-6.626l3.036-7.761c1.501-3.838-0.374-8.168-4.2-9.697L10.756,153.555
			c-3.848-1.541-8.212,0.332-9.75,4.179c-1.539,3.846,0.332,8.212,4.179,9.75l113.103,45.242L51.636,383.055l-41.162-14.579
			c-3.906-1.382-8.192,0.661-9.575,4.567c-1.383,3.905,0.662,8.192,4.567,9.575l48.006,17.002c3.768,1.335,8.034-0.618,9.489-4.338
			L74.1,366.816l29.187,16.356l-3.219,5.218c-9.121,14.783-4.516,34.231,10.268,43.353c7.818,4.824,17.523,5.968,26.259,3.14
			c1.401,9.104,6.751,17.228,14.596,22.068c7.818,4.824,17.522,5.968,26.259,3.14c1.402,9.104,6.75,17.227,14.595,22.068
			c7.842,4.839,17.496,5.978,26.261,3.149c1.404,9.1,6.751,17.22,14.594,22.059c11.399,7.033,26.487,5.982,36.762-2.63
			c2.59-2.171,4.819-4.762,6.593-7.638l5.117-8.292l4.213,2.588c11.414,7.013,26.498,5.933,36.757-2.698
			c2.586-2.176,4.81-4.771,6.579-7.65c3.516-5.723,4.971-12.137,4.587-18.381c2.382,0.573,4.82,0.881,7.28,0.881
			c10.894,0,21.199-5.745,26.9-15.023c3.434-5.59,5.003-11.963,4.605-18.378c2.376,0.57,4.809,0.876,7.261,0.876
			c10.894,0,21.2-5.745,26.9-15.023c3.437-5.594,5.005-11.971,4.604-18.391c2.402,0.572,4.841,0.871,7.269,0.871
			c10.594,0,20.953-5.334,26.894-15.003c9.094-14.801,4.452-34.24-10.349-43.334l-5.14-3.158l17.239-18.012l16.125,15.91
			c2.828,2.789,7.489,2.851,10.39,0.141l35.671-33.337C512.182,298.857,512.342,294.11,509.513,291.083z M140.923,413.597
			c-4.779,7.743-14.966,10.155-22.71,5.379c-7.744-4.778-10.156-14.965-5.379-22.709l42.014-68.091
			c4.689-7.6,14.751-10.085,22.434-5.546c7.95,4.7,10.144,15.599,5.371,23.336L140.923,413.597z M181.776,438.805
			c-4.777,7.743-14.965,10.156-22.708,5.379c-7.65-4.721-10.107-15.047-5.379-22.709l33.61-54.473
			c4.689-7.599,14.751-10.085,22.434-5.546c7.95,4.7,10.144,15.599,5.37,23.336L181.776,438.805z M222.634,464.013
			c-2.316,3.751-5.954,6.377-10.242,7.393c-4.291,1.017-8.718,0.3-12.469-2.014c-7.649-4.721-10.106-15.048-5.378-22.709
			l25.208-40.855c4.689-7.6,14.752-10.085,22.434-5.546c7.95,4.7,10.144,15.599,5.371,23.336L222.634,464.013z M280.01,462.446
			l-16.522,26.776c-4.721,7.65-15.047,10.105-22.71,5.378c-7.649-4.72-10.105-15.048-5.378-22.709l16.805-27.236
			c4.689-7.598,14.752-10.087,22.434-5.545C282.589,443.809,284.783,454.709,280.01,462.446z M416.654,328.948l-37.182-22.847
			c-3.448-2.119-8.199-0.984-10.317,2.464c-2.119,3.448-0.984,8.199,2.464,10.317l55.397,34.039
			c7.752,4.764,10.184,14.946,5.421,22.699c-4.764,7.752-14.947,10.184-22.7,5.421l-59.413-36.508
			c-3.529-2.17-8.149-1.065-10.317,2.464c-2.168,3.529-1.065,8.149,2.464,10.317l45.78,28.13
			c7.659,4.706,10.134,15.029,5.421,22.699c-4.706,7.659-15.029,10.133-22.699,5.421l-41.488-25.493
			c-3.53-2.169-8.149-1.065-10.317,2.464c-2.168,3.529-1.065,8.149,2.464,10.317l27.854,17.115
			c7.658,4.707,10.134,15.028,5.421,22.699c-4.706,7.658-15.029,10.134-22.699,5.421c0,0-24.496-15.037-24.725-15.147
			c-3.425-1.654-7.613-0.477-9.645,2.831c-2.168,3.529-1.065,8.149,2.464,10.317l10.419,6.402
			c7.752,4.764,10.183,14.946,5.42,22.699c-4.706,7.659-15.029,10.133-22.699,5.421l-4.188-2.574l3.527-5.717
			c4.509-7.308,5.908-16.308,3.838-24.692c-2.042-8.274-7.136-15.176-14.341-19.435c-5.622-3.322-11.911-4.668-18.035-4.255
			c1.15-4.94,1.156-10.146-0.076-15.137c-2.042-8.274-7.136-15.176-14.341-19.435c-5.622-3.323-11.911-4.669-18.035-4.256
			c3.093-13.288-2.601-27.585-14.417-34.571c-5.622-3.322-11.911-4.668-18.035-4.256c3.093-13.288-2.601-27.585-14.417-34.571
			c-14.669-8.671-33.884-3.922-42.834,10.582l-30.91,50.096L79.62,352.711l46.738-119.442l25.448,4.491
			c-7.238,8.99-9.273,21.647-4.173,32.848c5.278,11.588,16.744,18.445,28.718,18.444c4.361,0,8.79-0.91,13.011-2.832l43.928-20.008
			c3.72-1.694,5.412-6.215,3.717-9.935c-1.694-3.719-6.215-5.413-9.935-3.717l-43.929,20.007
			c-8.279,3.772-18.086,0.103-21.858-8.178c-3.771-8.281-0.103-18.086,8.178-21.858l70.294-32.015l83.618,7.201
			c0.215,0.019,0.43,0.028,0.644,0.028c1.82,0,3.587-0.663,4.964-1.877l7.118-6.285l100.186,98.849L416.654,328.948z"/>
	</g>
</g>
<g>
</g>
<g>
</g>
<g>
</g>
<g>
</g>
<g>
</g>
<g>
</g>
<g>
</g>
<g>
</g>
<g>
</g>
<g>
</g>
<g>
</g>
<g>
</g>
<g>
</g>
<g>
</g>
<g>
</g>
</symbol><symbol id="professional" viewBox="0 0 64 64"><g id="outline"><path d="M44,24a9.01,9.01,0,0,0,9-9V11a9,9,0,0,0-18,0v4A9.01,9.01,0,0,0,44,24ZM37,11a7,7,0,0,1,14,0v4a7,7,0,0,1-14,0Z"/><path d="M53,26H40v2h.323l1.659,4.148L40,53.909a1,1,0,0,0,.289.8l3,3a1,1,0,0,0,1.414,0l3-3a1,1,0,0,0,.289-.8L46.018,32.148,47.677,28H53a7.008,7.008,0,0,1,7,7V60H55V35H53V60H35V56H33v4H27v2H61a1,1,0,0,0,1-1V35A9.01,9.01,0,0,0,53,26Zm-7.477,2-1.2,3h-.646l-1.2-3ZM44,55.586l-1.962-1.962L43.913,33h.174l1.875,20.624Z"/><path d="M14.325,58.822l5.168,3.04a1,1,0,0,0,1.014,0l5.168-3.04A25.1,25.1,0,0,0,38,37.273V26a1,1,0,0,0-1-1,26.169,26.169,0,0,1-15.6-5.2l-.8-.6a1,1,0,0,0-1.2,0l-.8.6A26.164,26.164,0,0,1,3,25a1,1,0,0,0-1,1V37.273A25.1,25.1,0,0,0,14.325,58.822ZM4,26.981A28.182,28.182,0,0,0,19.8,21.4l.2-.149.2.149A28.182,28.182,0,0,0,36,26.981V37.273A23.092,23.092,0,0,1,24.662,57.1L20,59.84,15.338,57.1A23.092,23.092,0,0,1,4,37.273Z"/><path d="M16.353,55.374l3.14,1.848a1.007,1.007,0,0,0,1.014,0l3.14-1.847A21.084,21.084,0,0,0,34,37.273V29.736a1,1,0,0,0-.87-.991,30.354,30.354,0,0,1-12.583-4.661,1,1,0,0,0-1.094,0A30.364,30.364,0,0,1,6.87,28.745a1,1,0,0,0-.87.991v7.537A21.081,21.081,0,0,0,16.353,55.374ZM8,30.6a32.383,32.383,0,0,0,12-4.494A32.383,32.383,0,0,0,32,30.6v6.672A19.072,19.072,0,0,1,22.633,53.65L20,55.2l-2.634-1.55A19.07,19.07,0,0,1,8,37.273Z"/><rect x="19" y="29" width="2" height="2"/><rect x="10" y="32" width="2" height="2"/><rect x="10" y="39" width="2" height="2"/><rect x="28" y="32" width="2" height="2"/><rect x="28" y="39" width="2" height="2"/><rect x="13" y="45" width="2" height="2"/><rect x="25" y="45" width="2" height="2"/><rect x="19" y="50" width="2" height="2"/></g></symbol><symbol id="responsibility" viewBox="0 0 512 512"><path d="M355.70508,222.749a7.99582,7.99582,0,0,0,5.9707,1.07325l112-24A7.9989,7.9989,0,0,0,480,192V168a8.00039,8.00039,0,0,0-8-8H384V142.627a62.1588,62.1588,0,0,0-12.37012-37.38232A31.95645,31.95645,0,0,0,384,80V42.42188A26.42195,26.42195,0,0,0,342.92188,20.4375L323.5625,33.34375A7.99943,7.99943,0,0,0,320,40V74.72461l-15.28955,6.55273L221.8584,104.292a7.99761,7.99761,0,0,0-4.17285,2.79688l-54.17212,69.6499-31.44068,6.28809-22.647-20.90479a7.99871,7.99871,0,0,0-11.40527.56348l-64,72a7.99834,7.99834,0,0,0,.55371,11.19238l104,96A7.993,7.993,0,0,0,144,344c.13086,0,.2627-.00293.39453-.00977a8.00154,8.00154,0,0,0,5.585-2.67578l40.55518-45.62451-20.45752,49.68213L61.80273,376.30762a8.00044,8.00044,0,0,0-5.39257,10.22265l8,24a8.00224,8.00224,0,0,0,8.47363,5.4209l144-16a8.001,8.001,0,0,0,6.04-3.94336l42.05176-72.635,46.55273,39.90259-15.4668,123.73242A8.00149,8.00149,0,0,0,304,496h24a8.00026,8.00026,0,0,0,7.58984-5.46973l48-144a8.00115,8.00115,0,0,0-1.01269-7.084l-67.75049-97.86206,31.22363-24.979ZM464,185.53223l-24,5.14282V176h24ZM368,142.627v9.37281l-19.2002-14.40015-9.5996,12.80078,32,24A8.0033,8.0033,0,0,0,376,176h48v18.10352l-62.4707,13.38671-63.77149-40.58105a38.34446,38.34446,0,0,1,5.48242-67.59375l18.8086-8.061a31.92357,31.92357,0,0,0,34.21435,20.45313A46.27993,46.27993,0,0,1,368,142.627ZM352,96a16.01833,16.01833,0,0,1-16-16V64h32V80A16.01833,16.01833,0,0,1,352,96ZM336,44.28125,351.79785,33.749A10.42284,10.42284,0,0,1,368,42.42188V48H336ZM228.69043,119l42.73682-11.87158a54.23143,54.23143,0,0,0-6.53955,17.63867l-.1709-.07764L255.93921,144H240a8,8,0,0,0-5.20605,1.92578l-20.22144,17.33228-11.42163-11.42163Zm-3.97363,93.68945c-.04.08789-.06861.1792-.10523.26831l-.009-.00366L208.04785,253.158,192,238.34448v-34.665L242.959,160h5.70752ZM112,186.27173l78.20483,72.189-35.37671,5.054L112,220.68652Zm81.25073-21.70654,9.137,9.137L184.418,189.10449l-5.76758-5.76758Zm-27.88061,28.11938L176,203.31445V223.5752l-29.39844-27.137Zm-21.9336,131.9082-92.24121-85.1455L96,189.04126V224a8.00235,8.00235,0,0,0,2.34277,5.65723l48,48a8.00719,8.00719,0,0,0,6.78907,2.26269l34.3789-4.91113Zm67.66407,59.90235L77.544,399.335l-3.3125-9.93848,103.96582-29.7041a7.99988,7.99988,0,0,0,5.20019-4.64648L236.5542,225.95117l55.60449,18.53491ZM322.23438,480H313.0625l14.876-119.00781a8.00037,8.00037,0,0,0-2.73243-7.06641l-52.07666-44.637L304.603,254.92529l62.54248,90.33936Zm-19.833-248.96582L242.96,211.2207l25.27442-55.60351a54.14263,54.14263,0,0,0,20.93359,24.79l42.6167,27.11963Z"/></symbol><symbol id="team" viewBox="0 0 512 512">
<g>
	<g>
		<path d="M451.72,237.26c-17.422-8.71-50.087-8.811-51.469-8.811c-4.142,0-7.5,3.358-7.5,7.5c0,4.142,3.358,7.5,7.5,7.5
			c8.429,0.001,32.902,1.299,44.761,7.228c1.077,0.539,2.221,0.793,3.348,0.793c2.751,0,5.4-1.52,6.714-4.147
			C456.927,243.618,455.425,239.113,451.72,237.26z"/>
	</g>
</g>
<g>
	<g>
		<path d="M489.112,344.041l-30.975-8.85c-1.337-0.382-2.271-1.62-2.271-3.011v-10.339c2.52-1.746,4.924-3.7,7.171-5.881
			c10.89-10.568,16.887-24.743,16.887-39.915v-14.267l2.995-5.989c3.287-6.575,5.024-13.936,5.024-21.286v-38.65
			c0-4.142-3.358-7.5-7.5-7.5H408.27c-26.244,0-47.596,21.352-47.596,47.596v0.447c0,6.112,1.445,12.233,4.178,17.699l3.841,7.682
			v12.25c0,19.414,9.567,36.833,24.058,47.315l0.002,10.836c0,1.671,0,2.363-6.193,4.133l-15.114,4.318l-43.721-15.898
			c0.157-2.063-0.539-4.161-2.044-5.742l-13.971-14.678v-24.64c1.477-1.217,2.933-2.467,4.344-3.789
			c17.625-16.52,27.733-39.844,27.733-63.991v-19.678c5.322-11.581,8.019-23.836,8.019-36.457v-80.19c0-4.142-3.358-7.5-7.5-7.5
			H232.037c-39.51,0-71.653,32.144-71.653,71.653v16.039c0,12.621,2.697,24.876,8.019,36.457v16.931
			c0,28.036,12.466,53.294,32.077,69.946v25.22l-13.971,14.678c-1.505,1.581-2.201,3.679-2.044,5.742l-46.145,16.779
			c-3.344,1.216-6.451,2.863-9.272,4.858l-7.246-3.623c21.57-9.389,28.403-22.594,28.731-23.25c1.056-2.111,1.056-4.597,0-6.708
			c-5.407-10.814-6.062-30.635-6.588-46.561c-0.175-5.302-0.341-10.311-0.658-14.771c-2.557-35.974-29.905-63.103-63.615-63.103
			s-61.059,27.128-63.615,63.103c-0.317,4.461-0.483,9.47-0.658,14.773c-0.526,15.925-1.182,35.744-6.588,46.558
			c-1.056,2.111-1.056,4.597,0,6.708c0.328,0.656,7.147,13.834,28.76,23.234l-20.127,10.063C6.684,358.176,0,368.991,0,381.02
			v55.409c0,4.142,3.358,7.5,7.5,7.5s7.5-3.358,7.5-7.5V381.02c0-6.312,3.507-11.987,9.152-14.81l25.063-12.531l8.718,8.285
			c6.096,5.793,13.916,8.688,21.739,8.688c7.821,0,15.645-2.897,21.739-8.688l8.717-8.284l8.172,4.086
			c-3.848,6.157-6.032,13.377-6.032,20.94v57.725c0,4.142,3.358,7.5,7.5,7.5c4.142,0,7.5-3.358,7.5-7.5v-57.725
			c0-10.296,6.501-19.578,16.178-23.097l48.652-17.691l20.253,30.381c2.589,3.884,6.738,6.375,11.383,6.835
			c0.518,0.051,1.033,0.076,1.547,0.076c4.098,0,8.023-1.613,10.957-4.546l12.356-12.356v78.124c0,4.142,3.358,7.5,7.5,7.5
			c4.142,0,7.5-3.358,7.5-7.5v-78.124l12.356,12.356c2.933,2.934,6.858,4.547,10.957,4.547c0.513,0,1.029-0.025,1.546-0.076
			c4.646-0.46,8.795-2.951,11.384-6.835l20.254-30.38l48.651,17.691c9.676,3.519,16.178,12.801,16.178,23.097v57.725
			c0,4.142,3.358,7.5,7.5,7.5c4.142,0,7.5-3.358,7.5-7.5v-57.725c0-10.428-4.143-20.208-11.093-27.441l1.853-0.529
			c1.869-0.534,4.419-1.265,6.979-2.52l19.149,19.149v69.066c0,4.142,3.358,7.5,7.5,7.5c4.142,0,7.5-3.358,7.5-7.5v-69.066
			l19.016-19.016c1.011,0.514,2.073,0.948,3.191,1.267l30.976,8.85c7.07,2.02,12.009,8.567,12.009,15.921v62.044
			c0,4.142,3.358,7.5,7.5,7.5c4.142,0,7.5-3.358,7.5-7.5v-62.044C512,360.371,502.588,347.892,489.112,344.041z M48.115,330.794
			c-14.029-5.048-21.066-11.778-24.07-15.453c2.048-5.354,3.376-11.486,4.275-17.959c4.136,9.917,11.063,18.383,19.795,24.423
			V330.794z M91.08,351.092c-6.397,6.078-16.418,6.077-22.813-0.001l-6.975-6.628c1.177-2.205,1.824-4.705,1.824-7.324v-7.994
			c5.232,1.635,10.794,2.517,16.558,2.517c5.757,0,11.316-0.886,16.557-2.512l-0.001,7.988c0,2.62,0.646,5.121,1.824,7.327
			L91.08,351.092z M79.676,316.662c-22.396,0-40.615-18.22-40.615-40.615c0-4.142-3.358-7.5-7.5-7.5c-0.42,0-0.83,0.043-1.231,0.11
			c0.022-0.645,0.043-1.291,0.065-1.93c0.167-5.157,0.328-10.028,0.625-14.206c0.958-13.476,6.343-25.894,15.163-34.968
			c8.899-9.156,20.793-14.198,33.491-14.198s24.591,5.042,33.491,14.198c8.82,9.074,14.205,21.492,15.163,34.968
			c0.296,4.177,0.458,9.047,0.628,14.203c0.015,0.443,0.03,0.892,0.045,1.338c-8.16-12.572-20.762-21.837-37.045-27.069
			c-15.043-4.833-27.981-4.534-28.527-4.52c-1.964,0.055-3.828,0.877-5.191,2.291l-13.532,14.034
			c-2.875,2.982-2.789,7.73,0.193,10.605s7.73,2.788,10.605-0.193l11.26-11.677c9.697,0.474,40.894,4.102,53.027,30.819
			C116.738,302.04,99.816,316.662,79.676,316.662z M111.229,330.819l0.001-8.945c8.725-6.007,15.662-14.457,19.801-24.449
			c0.899,6.458,2.226,12.576,4.27,17.918C132.314,318.983,125.244,325.773,111.229,330.819z M183.403,209.145v-18.608
			c0-1.129-0.255-2.244-0.746-3.261c-4.826-9.994-7.273-20.598-7.273-31.518V139.72c0-31.239,25.415-56.653,56.653-56.653h104.769
			v72.692c0,10.92-2.447,21.524-7.273,31.518c-0.491,1.017-0.746,2.132-0.746,3.261v21.355c0,20.311-8.165,39.15-22.991,53.047
			c-1.851,1.734-3.772,3.36-5.758,4.875c-0.044,0.03-0.086,0.063-0.129,0.094c-13.889,10.545-30.901,15.67-48.667,14.519
			C213.201,281.965,183.403,248.897,183.403,209.145z M225.632,360.056c-0.052,0.052-0.173,0.175-0.418,0.149
			c-0.244-0.024-0.34-0.167-0.381-0.229l-23.325-34.988l7.506-7.887l35.385,24.187L225.632,360.056z M256.095,331.113
			l-40.615-27.762v-14c10.509,5.681,22.276,9.234,34.791,10.044c1.977,0.128,3.942,0.191,5.901,0.191
			c14.341,0,28.143-3.428,40.538-9.935v13.7L256.095,331.113z M287.357,359.978c-0.041,0.062-0.137,0.205-0.381,0.229
			c-0.245,0.031-0.365-0.098-0.418-0.149l-18.767-18.767l35.385-24.188l7.507,7.887L287.357,359.978z M424.308,353.65l-17.02-17.019
			c0.297-1.349,0.465-2.826,0.464-4.455l-0.001-3.165c4.723,1.55,9.701,2.47,14.852,2.624c0.578,0.018,1.151,0.026,1.727,0.026
			c5.692,0,11.248-0.86,16.536-2.501v3.02c0,1.496,0.188,2.962,0.542,4.371L424.308,353.65z M452.591,305.196
			c-7.949,7.714-18.45,11.788-29.537,11.446c-21.704-0.651-39.361-19.768-39.361-42.613v-14.021c0-1.165-0.271-2.313-0.792-3.354
			l-4.633-9.266c-1.697-3.395-2.594-7.195-2.594-10.991v-0.447c0-17.974,14.623-32.596,32.596-32.596h64.673v31.15
			c0,5.034-1.19,10.075-3.441,14.578l-3.786,7.572c-0.521,1.042-0.792,2.189-0.792,3.354v16.038
			C464.924,287.126,460.544,297.478,452.591,305.196z"/>
	</g>
</g>
<g>
	<g>
		<path d="M472.423,380.814c-4.142,0-7.5,3.358-7.5,7.5v48.115c0,4.142,3.358,7.5,7.5,7.5c4.142,0,7.5-3.358,7.5-7.5v-48.115
			C479.923,384.173,476.565,380.814,472.423,380.814z"/>
	</g>
</g>
<g>
	<g>
		<path d="M39.577,390.728c-4.142,0-7.5,3.358-7.5,7.5v38.201c0,4.142,3.358,7.5,7.5,7.5c4.142,0,7.5-3.358,7.5-7.5v-38.201
			C47.077,394.087,43.719,390.728,39.577,390.728z"/>
	</g>
</g>
<g>
	<g>
		<path d="M317.532,158.475c-28.366-28.366-87.715-22.943-111.917-19.295c-7.623,1.149-13.155,7.6-13.155,15.339v17.278
			c0,4.142,3.358,7.5,7.5,7.5c4.142,0,7.5-3.358,7.5-7.5v-17.279c0-0.255,0.168-0.473,0.392-0.507
			c9.667-1.457,28.85-3.705,48.725-2.38c23.388,1.557,40.328,7.428,50.349,17.45c2.929,2.929,7.678,2.929,10.606,0
			C320.461,166.152,320.461,161.403,317.532,158.475z"/>
	</g>
</g>
<g>
	<g>
		<path d="M167.884,396.853c-4.142,0-7.5,3.358-7.5,7.5v32.077c0,4.142,3.358,7.5,7.5,7.5c4.142,0,7.5-3.358,7.5-7.5v-32.077
			C175.384,400.212,172.026,396.853,167.884,396.853z"/>
	</g>
</g>
<g>
	<g>
		<path d="M344.306,396.853c-4.142,0-7.5,3.358-7.5,7.5v32.077c0,4.142,3.358,7.5,7.5,7.5c4.142,0,7.5-3.358,7.5-7.5v-32.077
			C351.806,400.212,348.448,396.853,344.306,396.853z"/>
	</g>
</g>
<g>
</g>
<g>
</g>
<g>
</g>
<g>
</g>
<g>
</g>
<g>
</g>
<g>
</g>
<g>
</g>
<g>
</g>
<g>
</g>
<g>
</g>
<g>
</g>
<g>
</g>
<g>
</g>
<g>
</g>
</symbol><symbol id="twitter" viewBox="0 0 512 512">
<g>
	<g>
		<path d="M512,97.248c-19.04,8.352-39.328,13.888-60.48,16.576c21.76-12.992,38.368-33.408,46.176-58.016
			c-20.288,12.096-42.688,20.64-66.56,25.408C411.872,60.704,384.416,48,354.464,48c-58.112,0-104.896,47.168-104.896,104.992
			c0,8.32,0.704,16.32,2.432,23.936c-87.264-4.256-164.48-46.08-216.352-109.792c-9.056,15.712-14.368,33.696-14.368,53.056
			c0,36.352,18.72,68.576,46.624,87.232c-16.864-0.32-33.408-5.216-47.424-12.928c0,0.32,0,0.736,0,1.152
			c0,51.008,36.384,93.376,84.096,103.136c-8.544,2.336-17.856,3.456-27.52,3.456c-6.72,0-13.504-0.384-19.872-1.792
			c13.6,41.568,52.192,72.128,98.08,73.12c-35.712,27.936-81.056,44.768-130.144,44.768c-8.608,0-16.864-0.384-25.12-1.44
			C46.496,446.88,101.6,464,161.024,464c193.152,0,298.752-160,298.752-298.688c0-4.64-0.16-9.12-0.384-13.568
			C480.224,136.96,497.728,118.496,512,97.248z"/>
	</g>
</g>
<g>
</g>
<g>
</g>
<g>
</g>
<g>
</g>
<g>
</g>
<g>
</g>
<g>
</g>
<g>
</g>
<g>
</g>
<g>
</g>
<g>
</g>
<g>
</g>
<g>
</g>
<g>
</g>
<g>
</g>
</symbol></svg>